<svg xmlns="http://www.w3.org/2000/svg" xmlns:xlink="http://www.w3.org/1999/xlink" width="222.02" height="55" viewBox="0 0 222.02 55"><defs><style>.cls-1{fill:#05368a;}.cls-2{fill:#81c6ee;}.cls-3{fill:#fff;}.cls-4{fill:#eb6827;}.cls-5{fill:#30addf;}.cls-6{fill:none;}.cls-7{fill:#fff000;}.cls-8{fill:#00aceb;}.cls-9{fill:url(#linear-gradient);}.cls-10{fill:url(#linear-gradient-2);}.cls-11{fill:url(#linear-gradient-3);}.cls-12{fill:url(#linear-gradient-4);}.cls-13{fill:url(#linear-gradient-5);}.cls-14{fill:url(#linear-gradient-6);}.cls-15{fill:url(#linear-gradient-7);}.cls-16{fill:url(#linear-gradient-8);}.cls-17{fill:url(#linear-gradient-9);}.cls-18{fill:url(#linear-gradient-10);}</style><linearGradient id="linear-gradient" x1="123.14" y1="55.44" x2="123.14" y2="-26.41" gradientUnits="userSpaceOnUse"><stop offset="0.14" stop-color="#000037"/><stop offset="0.25" stop-color="#000037"/><stop offset="0.34" stop-color="#050d44"/><stop offset="0.51" stop-color="#113067"/><stop offset="0.74" stop-color="#25699f"/><stop offset="1" stop-color="#3fb2e7"/></linearGradient><linearGradient id="linear-gradient-2" x1="131.03" y1="55.44" x2="131.03" y2="-26.41" xlink:href="#linear-gradient"/><linearGradient id="linear-gradient-3" x1="140.83" y1="55.44" x2="140.83" y2="-26.41" xlink:href="#linear-gradient"/><linearGradient id="linear-gradient-4" x1="168.12" y1="55.44" x2="168.12" y2="-26.41" xlink:href="#linear-gradient"/><linearGradient id="linear-gradient-5" x1="155.75" y1="55.44" x2="155.75" y2="-26.41" xlink:href="#linear-gradient"/><linearGradient id="linear-gradient-6" x1="157.62" y1="55.44" x2="157.62" y2="-26.41" xlink:href="#linear-gradient"/><linearGradient id="linear-gradient-7" x1="212.07" y1="55.44" x2="212.07" y2="-26.41" xlink:href="#linear-gradient"/><linearGradient id="linear-gradient-8" x1="192.17" y1="55.44" x2="192.17" y2="-26.41" xlink:href="#linear-gradient"/><linearGradient id="linear-gradient-9" x1="209.89" y1="55.44" x2="209.89" y2="-26.41" xlink:href="#linear-gradient"/><linearGradient id="linear-gradient-10" x1="164.22" y1="55.44" x2="164.22" y2="-26.41" xlink:href="#linear-gradient"/></defs><title>logo1</title><g id="レイヤー_2" data-name="レイヤー 2"><g id="デザイン"><path class="cls-1" d="M1.88,52.77l-.24.4.24-.4Z"/><path class="cls-1" d="M0,0V55H87.5V0ZM63,53.55C53,52.29,48.84,43.87,52.66,36.41,55.51,30.85,62,31.3,65,33.31c2.61,1.75,2.59,5.32.89,6.59a3.89,3.89,0,0,1-4.13.44,3.36,3.36,0,0,1-1.39-2.5,3.83,3.83,0,0,0-.82,3.45c.72,2.5,3.55,3.21,5.61,3.21,9.1,0,10.63-13.5,1.64-16.57l.08.08a12.8,12.8,0,0,0-12.62,2.53h0a12.45,12.45,0,0,0-1.93,1.94c-.22.29-.42.58-.55.77a13.26,13.26,0,0,0-1.32,2.55l-.06.16a12.35,12.35,0,0,0-.72,4.65s-5.8-4.28-16.87-4.22C21,36.45,9.36,42.16,1.64,53.17l.24-.48V2.12H52.36l-.8,0c18.9.54,33.5,13.68,33.5,30.22C85.06,50.57,72.35,54.74,63,53.55ZM85.46,16.17C81.7,7.91,71.15,2.52,57.65,1.76l27.81.36Z"/><path class="cls-2" d="M85.46,16.17v-14L57.65,1.76C71.15,2.52,81.7,7.91,85.46,16.17Z"/><path class="cls-2" d="M52.36,2.12H50.8l.76,0Z"/><path class="cls-2" d="M49.88,2.12h-48v46C5.21,16.32,28.85,2.35,49.88,2.12Z"/><path class="cls-3" d="M50.41,35.8l-.06.16Z"/><path class="cls-3" d="M85.06,32.36c0-16.54-14.6-29.68-33.5-30.22l-.76,0h-.92c-21,.23-44.67,14.2-48,46v4.57l-.24.48.24-.4h0C2,52.41,4.39,41.33,19,29.38c14.84-12.11,36.51-14,47.72-1.45,9,3.07,7.46,16.57-1.64,16.57-2.06,0-4.89-.71-5.61-3.21a3.83,3.83,0,0,1,.82-3.45,3.36,3.36,0,0,0,1.39,2.5,3.89,3.89,0,0,0,4.13-.44c1.7-1.27,1.72-4.84-.89-6.59-3-2-9.44-2.46-12.29,3.1C48.84,43.87,53,52.29,63,53.55,72.35,54.74,85.06,50.57,85.06,32.36Z"/><path class="cls-4" d="M37.26,30.09C26.45,31,12.1,35.9,2.19,52.25l-.31.53h0l-.24.4c7.72-11,19.4-16.72,31.12-16.78,11.07-.06,16.87,4.22,16.87,4.22A12.35,12.35,0,0,1,50.35,36l.06-.16a13.26,13.26,0,0,1,1.32-2.55l-.16.22C50.39,32.18,44.43,29.75,37.26,30.09Z"/><path class="cls-3" d="M37.84,27c-12.76.62-26.48,9.57-35.65,25.25C12.1,35.9,26.45,31,37.26,30.09c7.17-.34,13.13,2.09,14.31,3.38l.16-.22c.13-.19.33-.48.55-.77a12.45,12.45,0,0,1,1.93-1.94S50.08,26.41,37.84,27Z"/><path class="cls-5" d="M19,29.38C4.39,41.33,2,52.41,1.88,52.77h0l.31-.53C11.36,36.57,25.08,27.62,37.84,27c12.24-.59,16.35,3.52,16.37,3.54h0A12.8,12.8,0,0,1,66.83,28l-.08-.08C55.54,15.4,33.87,17.27,19,29.38Z"/><path class="cls-6" d="M175,40.36l-.14.13.46.09Z"/><path class="cls-6" d="M200.32,38.64a5.1,5.1,0,0,1-1-.11,4.79,4.79,0,0,1-3.5-3.69c-2.62,3-5.81,5.61-8.84,5.61a5,5,0,0,1-2.76-.8,5.15,5.15,0,0,1-1.69-1.79c-1.37,1.74-2.94,3.11-4.59,3.34,1,.27,2.08.58,3.14.92l1.66.54c5.13,1.68,11.5,3.76,16.6,3.76a11.6,11.6,0,0,0,4.73-.85,6,6,0,0,0,3.2-2.46,3.94,3.94,0,0,0,.48-1,1.75,1.75,0,0,0,0-.62,2.49,2.49,0,0,1-1.91-3.22,2.2,2.2,0,0,1,.33-1,6.54,6.54,0,0,1-1.12-.57A7.77,7.77,0,0,1,200.32,38.64Z"/><path class="cls-6" d="M170.4,13.81a3.24,3.24,0,0,1,.18.66,3,3,0,0,1,.12.43A13.06,13.06,0,0,0,174,10.84s0,0,0-.06a2,2,0,0,0-.52-1.69c-1.07-1.25-3.41-2-6.24-1.93a2,2,0,0,1,.13.25,3.46,3.46,0,0,1,.29.93,5.19,5.19,0,0,1-.15,3.3l.22,0A3.51,3.51,0,0,1,170.4,13.81Z"/><path class="cls-6" d="M163.82,19.1l-.09.16a19.09,19.09,0,0,0,2.4-1.11,10.87,10.87,0,0,0-1.57-.38Z"/><path class="cls-6" d="M101.21,43.32a10.53,10.53,0,0,0,1.69.12,26.6,26.6,0,0,0,5.42-.66,23.51,23.51,0,0,0,2.9-.85c-.81-.06-1.68-.09-2.56-.09C105.16,41.84,102.45,42.4,101.21,43.32Z"/><path class="cls-6" d="M166.77,39c-.21.24-.41.47-.62.69.37,0,.75,0,1.15,0a5.3,5.3,0,0,1-.28-.93Z"/><path class="cls-6" d="M120.74,30.36c.06-.42.15-.86.26-1.31a6,6,0,0,1-.62-.95,2.18,2.18,0,0,1-.19-.48,7,7,0,0,1-.27-1.61,8.06,8.06,0,0,1-2.82-1.41,4.58,4.58,0,0,0-.22,2.19,2.7,2.7,0,0,0,.71,1C118.54,28.69,119.65,29.54,120.74,30.36Z"/><path class="cls-6" d="M149,21.24l-.11.14.24.06c0-.12,0-.23,0-.35Z"/><path class="cls-6" d="M146.26,14.59c1.2.34,2.92,1.12,3.43,2.82a3.29,3.29,0,0,1,.09.43.3.3,0,0,1,0,.1.74.74,0,0,1,0,.14,8.73,8.73,0,0,1,1.6-2.51,12.81,12.81,0,0,1,6.08-3.69c.44-.81,1-1.81,1.16-2.18s.23-.51.33-.75c-3.64,1.34-7.75,3.28-11,4.81Z"/><path class="cls-6" d="M170.67,25.43a.76.76,0,0,1,.08-.11l-.12.06Z"/><path class="cls-6" d="M155.58,42a6.31,6.31,0,0,1-1.35-5.31,12.58,12.58,0,0,1,.54-2.2c0-.12.07-.24.11-.37-.39.68-.75,1.33-1.08,1.93-1.87,3.5-1.59,4.58-1.59,4.59s0,0,0,.08a5.78,5.78,0,0,0,1.39,1.81.08.08,0,0,1,0,0,.8.8,0,0,1,.29.5c0,1.4-2.21,1.78-3.61,1.81h-.07l-.3,0a6.33,6.33,0,0,1-5.68-6.41,5.05,5.05,0,0,1,.36-2,35.85,35.85,0,0,1,2.72-6.11,6.6,6.6,0,0,1-4.47,2.18,4,4,0,0,1-1.89-.46,7.62,7.62,0,0,1-5,2.39,4.69,4.69,0,0,1-2.81-.93l-.06,0a12.68,12.68,0,0,1-6,3.71c.07.23.13.46.18.7a5.85,5.85,0,0,1,.23,1.12,5.68,5.68,0,0,1,0,.59,2.21,2.21,0,0,1,.37,0c7.27,1.36,14.31,3.4,20.53,5.19,3,.86,5.75,1.66,8.13,2.26a5.62,5.62,0,0,1,.14-1,6,6,0,0,1,.88-2.31c.1-.16.2-.32.31-.47a5.58,5.58,0,0,1-2-1.06A3.84,3.84,0,0,1,155.58,42Z"/><path class="cls-7" d="M108.67,41.17c-4.9,0-7.32,1-8.07,2a4.5,4.5,0,0,0,.61.13c1.24-.92,4-1.48,7.45-1.48.88,0,1.75,0,2.56.09.48-.18,1-.36,1.43-.56C111.48,41.26,110.1,41.17,108.67,41.17Z"/><path class="cls-7" d="M133.24,15c-.17.31-.46.83-.86,1.49a4.78,4.78,0,0,1,.53-.06l.47-.84a6.83,6.83,0,0,0,.88-5.3A7.19,7.19,0,0,1,133.24,15Z"/><path class="cls-7" d="M108.78,20.71A10.46,10.46,0,0,0,110,30.22a23.49,23.49,0,0,0,5.72,5.61l1.44.31C111.83,32.43,106.72,27.85,108.78,20.71Z"/><path class="cls-7" d="M127.3,37.91a5.21,5.21,0,0,1,.09.57,6.2,6.2,0,0,1,0,1.14h.16a5.68,5.68,0,0,0,0-.59A5.85,5.85,0,0,0,127.3,37.91Z"/><path class="cls-7" d="M120.55,27.51a2.53,2.53,0,0,1-.19-.48,6.81,6.81,0,0,1-.26-1.65,7.82,7.82,0,0,1-3.09-1.6,4.38,4.38,0,0,0-.13,3,4.58,4.58,0,0,1,.22-2.19A8.06,8.06,0,0,0,119.92,26a7,7,0,0,0,.27,1.61,2.18,2.18,0,0,0,.19.48,6,6,0,0,0,.62.95c-.11.45-.2.89-.26,1.31l.09.07a11.41,11.41,0,0,1,.35-2A5.61,5.61,0,0,1,120.55,27.51Z"/><path class="cls-7" d="M149.78,17.84c0,.12,0,.23,0,.35,0,0,0-.07,0-.11a.74.74,0,0,0,0-.14A.3.3,0,0,0,149.78,17.84Z"/><path class="cls-7" d="M148.4,21.33h0a2.61,2.61,0,0,1,.48.05l.11-.14.13-.15c0,.12,0,.23,0,.35l.22.08,0-.21a7.5,7.5,0,0,1,0-1.34,3.7,3.7,0,0,1-.47.65A5.15,5.15,0,0,0,148.4,21.33Z"/><path class="cls-7" d="M133.14,33.55a4.69,4.69,0,0,0,2.81.93,7.62,7.62,0,0,0,5-2.39,4,4,0,0,0,1.89.46,6.6,6.6,0,0,0,4.47-2.18c.26-.51.54-1.05.85-1.63-1.88,2.13-3.6,3.15-5.3,3.15a3.82,3.82,0,0,1-1.93-.52c-1.74,1.64-3.39,2.44-5,2.44a4.52,4.52,0,0,1-2.7-.9l-.19-.15c-1.68,1.72-3.86,3.42-6.2,3.83.09.21.17.41.24.62a12.68,12.68,0,0,0,6-3.71Z"/><path class="cls-7" d="M157.91,28.18,157,29.74c.35-.54.72-1.06,1.11-1.55Z"/><path class="cls-7" d="M170.75,25.32c.28-.39.57-.78.84-1.17-.43.26-.89.51-1.36.75a4.63,4.63,0,0,1,.4.48Z"/><path class="cls-7" d="M173.47,9.09a2,2,0,0,1,.52,1.69s0,0,0,.06a2.36,2.36,0,0,0,.19-.63,2,2,0,0,0-.5-1.69c-1.15-1.39-3.78-2.16-6.92-2a3.17,3.17,0,0,1,.49.65C170.06,7.12,172.4,7.84,173.47,9.09Z"/><path class="cls-7" d="M164.47,17.08l-.79,1.43c-.17.31-.36.63-.55,1q.3-.09.6-.21l.09-.16.74-1.33a10.87,10.87,0,0,1,1.57.38l.75-.43A11.77,11.77,0,0,0,164.47,17.08Z"/><path class="cls-7" d="M170.62,15l.08-.06a3,3,0,0,0-.12-.43A4.22,4.22,0,0,1,170.62,15Z"/><path class="cls-7" d="M167.65,8.34a6.23,6.23,0,0,1-.47,3.24l.32.06A5.19,5.19,0,0,0,167.65,8.34Z"/><path class="cls-7" d="M145.87,14.49l.39.1,1.76-.83c3.26-1.53,7.37-3.47,11-4.81.12-.28.22-.55.31-.79-3.74,1.35-8,3.36-11.4,5l-2.83,1.32A2.46,2.46,0,0,1,145.87,14.49Z"/><path class="cls-7" d="M144.26,38.43a6.33,6.33,0,0,0,5.68,6.41l.3,0h.07c1.4,0,3.61-.41,3.61-1.81a.8.8,0,0,0-.29-.5c0,.31-.86,1.42-3.31,1.65h-.07l-.28,0c-2.15,0-5.35-2.05-5.53-6.31a4.16,4.16,0,0,1,.18-1.38A5.05,5.05,0,0,0,144.26,38.43Z"/><path class="cls-7" d="M153.8,36c.33-.6.69-1.25,1.08-1.93a17.78,17.78,0,0,1,1.46-3.31c-1,1.7-1.94,3.28-2.68,4.64-1.89,3.54-1.6,4.6-1.59,4.61a1.78,1.78,0,0,0,.15.66s0-.06,0-.08S151.93,39.51,153.8,36Z"/><path class="cls-7" d="M180.34,13.57c-.54,2.51-2.1,5.76-6.12,8.83a1.8,1.8,0,0,1,.63.21,15,15,0,0,0,5.61-8.38,11.39,11.39,0,0,0-.15-5.63A11.41,11.41,0,0,1,180.34,13.57Z"/><path class="cls-7" d="M138.84,15.86c-2.3-.87-3.24-3.89-3.34-6.54a2.88,2.88,0,0,1,.05-.59,2.67,2.67,0,0,0-.23,1.16c.09,2.49,1,5.31,3,6.41l.36-.31Z"/><path class="cls-7" d="M163.42,33.47c.12-.14.23-.3.35-.47l0-.07Z"/><path class="cls-7" d="M209.92,30.81l-.11.14.18-.14Z"/><path class="cls-7" d="M200.33,38a4,4,0,0,1-1-.11A4.7,4.7,0,0,1,195.89,34C193.25,37,190,39.78,187,39.78a4.71,4.71,0,0,1-2.64-.77,5,5,0,0,1-1.78-2c-1.47,1.91-3.26,3.55-5.1,3.55a3.16,3.16,0,0,1-.76-.09,4.09,4.09,0,0,1-1.68-.87,7.66,7.66,0,0,1-.87.73l.73.15.14-.13.32.22c.85.18,1.71.39,2.59.62,1.65-.23,3.22-1.6,4.59-3.34a5.15,5.15,0,0,0,1.69,1.79,5,5,0,0,0,2.76.8c3,0,6.22-2.64,8.84-5.61a4.79,4.79,0,0,0,3.5,3.69,5.1,5.1,0,0,0,1,.11A7.77,7.77,0,0,0,205,36.71a6.54,6.54,0,0,0,1.12.57,2.18,2.18,0,0,1,.26-.36s.09-.1.17-.17A5.82,5.82,0,0,1,205,36,7.76,7.76,0,0,1,200.33,38Z"/><path class="cls-7" d="M155.74,41.34a6.17,6.17,0,0,1-1.33-5.21,10.53,10.53,0,0,1,.36-1.68,12.58,12.58,0,0,0-.54,2.2A6.31,6.31,0,0,0,155.58,42a3.84,3.84,0,0,0,.29.27,5.58,5.58,0,0,0,2,1.06c.15-.2.31-.39.47-.57A5.28,5.28,0,0,1,156,41.6,1.66,1.66,0,0,1,155.74,41.34Z"/><path class="cls-7" d="M166.65,38.41c-.44.49-.87.94-1.29,1.36.26,0,.52-.05.79-.06.21-.22.41-.45.62-.69l.25-.28a5.3,5.3,0,0,0,.28.93h.43a5.85,5.85,0,0,1-.6-1.84Z"/><path class="cls-7" d="M204.57,19.82l.18.05a3.94,3.94,0,0,0-.09-1c0-.14-.07-.27-.11-.4A4.49,4.49,0,0,1,204.57,19.82Z"/><path class="cls-7" d="M207.06,24.38l.38-.54a3.39,3.39,0,0,0-.19-1.3A3.53,3.53,0,0,1,207.06,24.38Z"/><path class="cls-7" d="M217.21,21a4.19,4.19,0,0,0,.23,1.5,3.06,3.06,0,0,1-.08-.9,5.1,5.1,0,0,0,2-3.56,3.22,3.22,0,0,0-.19-1.24,2.89,2.89,0,0,1,0,.66A5,5,0,0,1,217.21,21Z"/><path class="cls-7" d="M210.32,18.52a8.93,8.93,0,0,0-.39,1.66l.13-.21A9.32,9.32,0,0,1,210.32,18.52Z"/><path class="cls-7" d="M221.8,25.62a4.25,4.25,0,0,1,.07.8,4.58,4.58,0,0,1-2.68,4.08,5.41,5.41,0,0,1-1.35.51,10.56,10.56,0,0,1-1,2.27A7.26,7.26,0,0,1,214,36a6.12,6.12,0,0,1,.48.41A7.05,7.05,0,0,0,217,33.87a11,11,0,0,0,1-2.22,5.59,5.59,0,0,0,1.3-.51A4.65,4.65,0,0,0,222,27,4.43,4.43,0,0,0,221.8,25.62Z"/><path class="cls-7" d="M93.92,47.23c.94,2.19,3,3.74,6.11,4.59a15,15,0,0,0,3.85.4c5.14,0,15-1.59,20.73-7.42a2.37,2.37,0,0,1-.47-1,1.41,1.41,0,0,1,.06-.84c0-.67.51-1.09,1.1-1.6l.56-1.18a2.42,2.42,0,0,1,1.54-.59,6.2,6.2,0,0,0,0-1.14,5.21,5.21,0,0,0-.09-.57c-.07-.23-.16-.46-.25-.68l.07,0c-.07-.21-.15-.41-.24-.62a5.64,5.64,0,0,1-1.08.1h-.11A4.65,4.65,0,0,1,126,37.8a5.26,5.26,0,0,1-1.5,4,19,19,0,0,1-6.91,4.91c-6.3,3-14.13,3.48-16.92,2.71S96.41,47.3,96,45.77l0-.11a5.64,5.64,0,0,1,.42-4.93c1.4-2.72,6.66-4.62,12.8-4.62a35.45,35.45,0,0,1,9.39,1.32l.69.19-.26.67a1.64,1.64,0,0,1-1.21,1,1,1,0,0,1-1.11.17c-.79-.27-10.29-1.8-15.46.38a4.15,4.15,0,0,0-2.12,2.27,1.32,1.32,0,0,0,.08,1.23c.49.68,2,1.08,4.11,1.08a28,28,0,0,0,5.78-.7c4.39-1,11.1-4.14,11.66-7a1.83,1.83,0,0,0,0-.66,4.58,4.58,0,0,0-1.5-1.53c-4-2.73-7-5.31-8.06-8.41a8.62,8.62,0,0,1,0-6.67c1.9-5.09,10.18-13.55,15.65-13.55a4.19,4.19,0,0,1,3.14,1.29,3.72,3.72,0,0,1,2.65,1.68c.6,1.1.42,2.55-.53,4.3a33.35,33.35,0,0,1-2.79,4.36,9.69,9.69,0,0,1,3.13-1.09c.4-.66.69-1.18.86-1.49a7.19,7.19,0,0,0,1-4.71,5.29,5.29,0,0,0-.36-.85,5.4,5.4,0,0,0-3.41-2.53,6.16,6.16,0,0,0-4.09-1.45c-6.48,0-15.34,9.1-17.46,14.81-.06.16-.11.31-.16.46-2.06,7.14,3,11.72,8.37,15.43l-1.44-.31c.3.23.6.45.91.66a36.59,36.59,0,0,0-7.85-.87c-7,0-12.75,2.23-14.52,5.67a11.37,11.37,0,0,0-.54,1.26A7,7,0,0,0,93.92,47.23ZM112.24,42a23.91,23.91,0,0,1-4,1.26,26.17,26.17,0,0,1-5.37.65,8.81,8.81,0,0,1-2.1-.2,3.22,3.22,0,0,1,.42-.39,4.5,4.5,0,0,1-.61-.13c.75-1,3.17-2,8.07-2,1.43,0,2.81.09,4,.2-.47.2-1,.38-1.43.56Z"/><path class="cls-7" d="M119.88,19.57c1,0,2.1-.81,3.25-2.34l.4-.54c1.8-2.4,4.43-5.91,4.76-7.21a1.12,1.12,0,0,0-.24-.08,2.05,2.05,0,0,0-1,.14c-1.64.89-4.5,3.38-8.68,8.32l-.35.42.54.68A1.82,1.82,0,0,0,119.88,19.57Z"/><path class="cls-7" d="M120.69,30.76c-1-.79-2.08-1.6-3-2.43a2.63,2.63,0,0,1-.82-1.54,4.38,4.38,0,0,1,.13-3,7.82,7.82,0,0,0,3.09,1.6,4.74,4.74,0,0,1,.24-1.83,2.55,2.55,0,0,1,.31-.59c-2.34-.71-2.84-2-3-2.5a2.58,2.58,0,0,1-.32-1.1v-.24c-2.08,3-3.25,6.78-.61,9.2,1.07,1,2.29,1.9,3.47,2.8l.55.41a8.39,8.39,0,0,1,0-1.1l-.09-.07C120.72,30.49,120.71,30.62,120.69,30.76Z"/><path class="cls-7" d="M116.8,39.19a39.8,39.8,0,0,0-7.77-.74c-2.67,0-5.78.29-7.84,1.38,5.17-2.18,14.67-.65,15.46-.38a1,1,0,0,0,1.11-.17,1.39,1.39,0,0,1-.3,0A2,2,0,0,1,116.8,39.19Z"/><path class="cls-7" d="M119.2,34.22c-3.42-2.33-6.7-4.86-8.06-8.07,1,3.1,4.08,5.68,8.06,8.41a4.58,4.58,0,0,1,1.5,1.53A3.16,3.16,0,0,0,119.2,34.22Z"/><path class="cls-7" d="M128.05,9.4a1.12,1.12,0,0,1,.24.08.9.9,0,0,0,0-.31h-.14a2.7,2.7,0,0,0-1.15.39A2.05,2.05,0,0,1,128.05,9.4Z"/><path class="cls-7" d="M104.24,49.51a13.37,13.37,0,0,1-3.4-.35c-2.48-.68-4.11-1.82-4.86-3.39.43,1.53,1.84,2.87,4.67,3.64s10.62.28,16.92-2.71a35.73,35.73,0,0,1-13.33,2.81Z"/><path class="cls-7" d="M120.65,23a2.43,2.43,0,0,1,.2-.25,4.89,4.89,0,0,1-3.15-2.25C117.81,21,118.31,22.25,120.65,23Z"/><path class="cls-7" d="M131.52,17.82a5.88,5.88,0,0,1,2.09-.45,2.19,2.19,0,0,1,1.88.81,2.79,2.79,0,0,1,.18,2.51c-.93,3-4.1,5.85-6.86,7a8.68,8.68,0,0,1-1.48.58c-.4,1.81-.12,2.35,0,2.47a.34.34,0,0,0,.31.12A6,6,0,0,0,130.69,29a34.54,34.54,0,0,0,3.93-4.83,22.42,22.42,0,0,1,5.47-7.62,7.55,7.55,0,0,1,.77-.53h0a4,4,0,0,1-.59,0,3.86,3.86,0,0,1-1.39-.24l-.19.13-.36.31.3.15-.08.06a14.46,14.46,0,0,0-1.91,1.87,4.12,4.12,0,0,0-3.36-1.51c-.21,0-.41,0-.63,0,.11-.17.21-.34.3-.5a4.78,4.78,0,0,0-.53.06C132.13,16.87,131.84,17.33,131.52,17.82Z"/><path class="cls-7" d="M133.08,32.76l.19.15a4.52,4.52,0,0,0,2.7.9c1.6,0,3.25-.8,5-2.44a3.82,3.82,0,0,0,1.93.52c1.7,0,3.42-1,5.3-3.15.64-1.22,1.39-2.62,2.27-4.22a6.62,6.62,0,0,1-1.1-3l-.22-.08a3.54,3.54,0,0,0,0,.46v0a2.55,2.55,0,0,0-.55-.11c.11-.17.2-.31.29-.43a2.61,2.61,0,0,0-.48-.05h0a5.15,5.15,0,0,1,.49-.71,3.7,3.7,0,0,0,.47-.65,7.53,7.53,0,0,1,.46-1.78c0-.12,0-.23,0-.35-.64-1.85-2.69-2.59-3.88-2.87a1.86,1.86,0,0,0-.34-.06l.7-.32-.39-.1a2.46,2.46,0,0,0-.76-.05c-.75.34-1.39.63-2,.86h.16a2.66,2.66,0,0,1,1.74.58l0,0,.19-.54.56.13c.51.12,2.18.59,2.51,1.66a1.41,1.41,0,0,1-.39,1.42,27.07,27.07,0,0,0-3.59,7.66,12.87,12.87,0,0,0,3.36-3.08c.39-.5.67-.77,1.06-.77a.67.67,0,0,1,.56.29c.13.17.25.47,0,1.16l0,.09-.05.07q-2.89,4.31-5.12,5.09c-1.69.95-2.61,0-2.86-1.05l0,0a10.17,10.17,0,0,1-3.72,2.93,2.55,2.55,0,0,1-2.88,0,1.9,1.9,0,0,1-.71-1.15,2.83,2.83,0,0,1-.29-.85,15.41,15.41,0,0,1-5.64,4.69,4.5,4.5,0,0,1-2.82.57,9.22,9.22,0,0,1,1.65,2.44C129.22,36.18,131.4,34.48,133.08,32.76Z"/><path class="cls-7" d="M123.47,27.33a4.15,4.15,0,0,1-.78-1c0-.13-.06-.24-.08-.36a1.42,1.42,0,0,1-.13-.22l0-.06,0-.06,0-.1a5.12,5.12,0,0,1-.78.06,5.39,5.39,0,0,1-1.33-.17l-.19-.06a6.81,6.81,0,0,0,.26,1.65,2.53,2.53,0,0,0,.19.48,5.61,5.61,0,0,0,.63.95,11.41,11.41,0,0,0-.35,2l.1.07c.83.63,1.65,1.25,2.41,1.89C122.77,31.22,122.8,29.47,123.47,27.33Z"/><path class="cls-7" d="M124.29,25.23l.15-.33-.31.15A1.37,1.37,0,0,0,124.29,25.23Z"/><path class="cls-7" d="M133.16,19.75a17.2,17.2,0,0,0-4.55,5.43,17.59,17.59,0,0,0,4.83-5.48A1.66,1.66,0,0,0,133.16,19.75Z"/><path class="cls-7" d="M138,27.47c.25,0,1.39-.2,3.24-2.68a20.52,20.52,0,0,1,.77-2.33,1.4,1.4,0,0,1-.49-.76l.06,0a2.54,2.54,0,0,1-.31-.64l-.24-.67.69-.17a3.1,3.1,0,0,0,2.13-2.62.86.86,0,0,0-.6,0,10.18,10.18,0,0,0-2.56,2.53c-2.14,2.78-3.07,6.12-2.76,7.2A.47.47,0,0,0,138,27.47Z"/><path class="cls-7" d="M123.88,22.45a4.38,4.38,0,0,0,.25,2.6l.31-.15a16.4,16.4,0,0,1,2.74-4.06,12.44,12.44,0,0,1,4.34-3c.32-.49.61-.95.86-1.35a9.69,9.69,0,0,0-3.13,1.09A15.45,15.45,0,0,1,123.88,22.45Z"/><path class="cls-7" d="M120.91,23l-.26-.07a2.55,2.55,0,0,0-.31.59,4.74,4.74,0,0,0-.24,1.83l.19.06a5.39,5.39,0,0,0,1.33.17,5.12,5.12,0,0,0,.78-.06,4.72,4.72,0,0,1-.19-2.48A3,3,0,0,1,120.91,23Z"/><path class="cls-7" d="M124.56,34a2.16,2.16,0,0,1-1.2-1.52l0,0c-.76-.64-1.58-1.26-2.41-1.89l-.1-.07a8.39,8.39,0,0,0,0,1.1c2.18,1.66,4.16,3.27,4.9,5.16h.11a5.64,5.64,0,0,0,1.08-.1,9.22,9.22,0,0,0-1.65-2.44A3.22,3.22,0,0,1,124.56,34Z"/><path class="cls-7" d="M120.91,23a3,3,0,0,0,1.3,0l.06-.19-.29,0a3.22,3.22,0,0,1-.88-.12l-.25-.07a2.43,2.43,0,0,0-.2.25Z"/><path class="cls-7" d="M142,22.46l.1-.27a1.57,1.57,0,0,1-.53-.51l-.06,0A1.4,1.4,0,0,0,142,22.46Z"/><path class="cls-7" d="M133.51,19.56l-.35.19a1.66,1.66,0,0,1,.28-.05C133.47,19.65,133.49,19.6,133.51,19.56Z"/><path class="cls-7" d="M143.83,17.58a.5.5,0,0,0,0-.12,1,1,0,0,0,0-.16,2,2,0,0,0-.63.27A.86.86,0,0,1,143.83,17.58Z"/><path class="cls-7" d="M141.31,28c.25,1.07,1.17,2,2.86,1.05a2.86,2.86,0,0,1-.93.17A2.14,2.14,0,0,1,141.31,28Z"/><path class="cls-7" d="M124.82,33.73l.41.42a4.5,4.5,0,0,0,2.82-.57,5.22,5.22,0,0,1-1.89.4A3.75,3.75,0,0,1,124.82,33.73Z"/><path class="cls-7" d="M123.47,27.33l.08-.26a5.18,5.18,0,0,1-.94-1.08c0,.12,0,.23.08.36A4.15,4.15,0,0,0,123.47,27.33Z"/><path class="cls-7" d="M134.66,30.54a2.39,2.39,0,0,1-.68-.8,1.9,1.9,0,0,0,.71,1.15,2.55,2.55,0,0,0,2.88,0,3.54,3.54,0,0,1-1.24.24A2.74,2.74,0,0,1,134.66,30.54Z"/><path class="cls-7" d="M127.34,28.24v0a8.68,8.68,0,0,0,1.48-.58,7.49,7.49,0,0,1-1.45.45S127.35,28.21,127.34,28.24Z"/><path class="cls-7" d="M124.66,33.67a2.7,2.7,0,0,1-1.3-1.24,2.16,2.16,0,0,0,1.2,1.52,3.22,3.22,0,0,0,.67.2l-.41-.42Z"/><path class="cls-7" d="M168.66,15.44l-.5-.2a1.19,1.19,0,0,1-.11.28,13.72,13.72,0,0,0-4.33-1c-.34.64-.74,1.35-1.22,2.21C161.8,18,161,19.35,160,21.05a16.94,16.94,0,0,0,2.2-.23c6.1-1,13.5-7.45,14.11-11.17a3.84,3.84,0,0,0-.1-1.69C174.79,5,170.11,3,162.94,4.51h0l.32,1.14c.05.09.43.59,1.73.83a1.53,1.53,0,0,1,1.16.84c.43.88.11,2.24-1.2,4.88a20.19,20.19,0,0,1,2.79.41,1.78,1.78,0,0,1,1.4,1A1.6,1.6,0,0,1,169,15Zm-2,2.87a18.49,18.49,0,0,1-3.22,1.53l.33-.58q-.3.12-.6.21c.19-.33.38-.65.55-1l.79-1.43a11.77,11.77,0,0,1,2.41.64l-.75.43Zm1.14-6.14-.41-.09.15-.44-.32-.06a6.23,6.23,0,0,0,.47-3.24,2.47,2.47,0,0,0-.17-.42,3,3,0,0,0-.5-.75h.25a3.17,3.17,0,0,0-.49-.65c3.14-.15,5.77.62,6.92,2a2,2,0,0,1,.5,1.69,2.36,2.36,0,0,1-.19.63c-.21,1.12-1.45,2.77-3.22,4.4,0-.11,0-.23-.05-.34l-.08.06a4.22,4.22,0,0,0,0-.49c0-.05,0-.09-.05-.13A3.67,3.67,0,0,0,167.76,12.17Z"/><path class="cls-7" d="M138.84,15.86A6.83,6.83,0,0,1,143,14.32a4.89,4.89,0,0,1,1.55.25,2.38,2.38,0,0,1,.6-.13l2.83-1.32c3.38-1.6,7.66-3.61,11.4-5-.09.24-.19.51-.31.79l.06,0c-.15.39-.34.83-.56,1.33-.16.35-.7,1.33-1.14,2.13a12.92,12.92,0,0,0-6.08,3.71,8.78,8.78,0,0,0-1.42,2.09l0-.11s0,.07,0,.11a3.25,3.25,0,0,1-.46,1.78,7.5,7.5,0,0,0,0,1.34l0,.21a2.51,2.51,0,0,1,1.07.87,3,3,0,0,1,.26,2.82,2.29,2.29,0,0,1-.3.63,28.69,28.69,0,0,1-2.2,2.9c-.31.58-.59,1.12-.85,1.63.07-.07.15-.14.22-.22a51,51,0,0,0-2.94,6.33,4.16,4.16,0,0,0-.18,1.38c.18,4.26,3.38,6.27,5.53,6.31l.28,0h.07c2.45-.23,3.35-1.34,3.31-1.65-.48-.49-1.43-1-1.41-1.86a1.78,1.78,0,0,1-.15-.66s-.3-1.07,1.59-4.61c.74-1.36,1.66-2.94,2.68-4.64.2-.35.41-.69.62-1l.95-1.56h.16a16.27,16.27,0,0,1,2.56-2.61,13.22,13.22,0,0,1-3.43,0c-1.82,3-3.52,5.76-4.73,8-1.95,3.63-1.73,5.42-1.44,6.23a9.68,9.68,0,0,0,1,1.83,8.06,8.06,0,0,1-2-.3,1.37,1.37,0,0,0,.22.3c.35,0,.25.23,0,0l-.2,0a3.36,3.36,0,0,1-2.67-1.89,4.25,4.25,0,0,1-.95-2.84c0-1.28.84-3.16,6.45-13.32a4.39,4.39,0,0,1-1-1.72,4.76,4.76,0,0,1-.44-1.62A5.81,5.81,0,0,1,153.12,16a11.34,11.34,0,0,1,5.94-3.36c.65-1.17,1.38-2.49,1.61-3A15.62,15.62,0,0,0,162,5.82l.15-1.12a65.91,65.91,0,0,0-10.38,3.92c-1.47.67-2.89,1.34-4.19,1.94s-2.36,1.11-3.27,1.53a20.49,20.49,0,0,1-3.81,1.5c-1.14.17-1.77-.82-2.13-1.9a9.74,9.74,0,0,1-.71-3.31l0-1.14a2.51,2.51,0,0,0-.8.22,2.66,2.66,0,0,0-1.25,1.27,2.88,2.88,0,0,0-.05.59C135.6,12,136.54,15,138.84,15.86Z"/><path class="cls-7" d="M167.07.37a40.5,40.5,0,0,0-13.21,2.46c-1.62.6-3.3,1.29-4.92,2-3.39,1.4-7.23,3-9.13,3a1.76,1.76,0,0,1-.31,0A2.52,2.52,0,0,0,138,7.22l.74.65a2.21,2.21,0,0,0,1.47.41h0c2.29,0,6.14-1.6,9.87-3.14,1.61-.66,3.27-1.35,4.86-1.94A38.57,38.57,0,0,1,167.44.86c4.29,0,7.49,1,9.27,3A9.48,9.48,0,0,1,179,12.37c-.69,3.06-3.18,7.41-11.09,11l-.44.2a5.06,5.06,0,0,1,2.81,1.38c.47-.24.93-.49,1.36-.75l.06-.08h0a2.4,2.4,0,0,1,1.53-1.6,2.33,2.33,0,0,1,1-.07c4-3.07,5.58-6.32,6.12-8.83a11.41,11.41,0,0,0,0-5,11.78,11.78,0,0,0-2.52-4.55C175.59,1.61,172,.37,167.07.37Z"/><path class="cls-7" d="M154.36,19.06a1.48,1.48,0,0,0,.58.86l2.17-3.85.11-.19a10,10,0,0,0-2.29,1.82A1.75,1.75,0,0,0,154.36,19.06Z"/><path class="cls-7" d="M145.11,14.44a2.38,2.38,0,0,0-.6.13,4.89,4.89,0,0,0-1.55-.25,6.83,6.83,0,0,0-4.12,1.54,3.86,3.86,0,0,0,1.39.24,4,4,0,0,0,.59,0h0a5,5,0,0,1,2.3-.75C143.72,15.07,144.36,14.78,145.11,14.44Z"/><path class="cls-7" d="M148.19,28.74a28.69,28.69,0,0,0,2.2-2.9,2.29,2.29,0,0,0,.3-.63,3,3,0,0,0-.26-2.82,2.51,2.51,0,0,0-1.07-.87,6.62,6.62,0,0,0,1.1,3C149.58,26.12,148.83,27.52,148.19,28.74Z"/><path class="cls-7" d="M149.82,18.19a7.53,7.53,0,0,0-.46,1.78A3.25,3.25,0,0,0,149.82,18.19Z"/><path class="cls-7" d="M167.42,23.52l.44-.2-.46.2Z"/><path class="cls-7" d="M151.75,8.62A65.91,65.91,0,0,1,162.13,4.7V4.58A74,74,0,0,0,151.75,8.62Z"/><path class="cls-7" d="M176.18,8a4.27,4.27,0,0,0-.86-1.57c-1.41-1.66-4.12-2.62-7.41-2.62a22,22,0,0,0-4.48.5l-.56.13,0,.12h0C170.11,3,174.79,5,176.18,8Z"/><path class="cls-7" d="M168.16,15.24h0a13,13,0,0,0-4.31-1l-.13.24a13.72,13.72,0,0,1,4.33,1A1.19,1.19,0,0,0,168.16,15.24Z"/><path class="cls-7" d="M159.08,25.49a12,12,0,0,1-1.73-.12l-.15.25a13.22,13.22,0,0,0,3.43,0l.27-.2A16.43,16.43,0,0,1,159.08,25.49Z"/><path class="cls-7" d="M140.59,13.39a2.52,2.52,0,0,1-2.24-1.7c.36,1.08,1,2.07,2.13,1.9a20.49,20.49,0,0,0,3.81-1.5,16,16,0,0,1-3.36,1.27Z"/><path class="cls-7" d="M151.9,21.91a4.39,4.39,0,0,0,1,1.72l.11-.2A5.14,5.14,0,0,1,151.9,21.91Z"/><path class="cls-7" d="M147.38,39.79a3.36,3.36,0,0,0,2.67,1.89l.2,0a1.37,1.37,0,0,1-.22-.3A5.21,5.21,0,0,1,147.38,39.79Z"/><path class="cls-7" d="M150.25,41.7c.25.23.35,0,0,0Z"/><path class="cls-7" d="M171.59,24.15c-.27.39-.56.78-.84,1.17l.38-.21c-.16.22-.32.45-.49.67l-.24-.28.23-.12a4.63,4.63,0,0,0-.4-.48c-.29.16-.59.31-.9.46a2.18,2.18,0,0,1,.65,1.36,5.1,5.1,0,0,1-.29,2.13,4.36,4.36,0,0,0,.56-.47,40.37,40.37,0,0,0,3.31-4.26c0-.11.08-.19.11-.26l.28-.76.68.45a2.39,2.39,0,0,0,1.22.28h0a.83.83,0,0,1,.71.38c.43.68-.1,2-1.73,5.49l-.47,1a10.82,10.82,0,0,0-1.13,4.2,5.29,5.29,0,0,0,.78-.84,18.84,18.84,0,0,0,2.2-3.84c.37-1.28.7-2.32.7-2.33,1.39-4.61,1.55-4.85,1.63-4.94a.78.78,0,0,1,.66-.33,2.41,2.41,0,0,1,.78.19l.27.09a2,2,0,0,1,1.34.95,1.71,1.71,0,0,1,0,1.37l-.2.45a28.18,28.18,0,0,0-1.71,5.18,7.06,7.06,0,0,0-.31,2.87h0a12.77,12.77,0,0,0,2.36-3.12,2.25,2.25,0,0,1-.08-.24v0a3.4,3.4,0,0,1-.27-.7c-.8-2.92,1.8-6.47,2.7-7.14a1.87,1.87,0,0,1,1.1-.39,1.24,1.24,0,0,1,1.08.58c.59.89.31,2.59-.88,5.36-.25.6-.52,1.19-.8,1.77h.07a18,18,0,0,1,3.72-6c2-2,4.56-3.41,6.43-3.41a2.19,2.19,0,0,1,1.89.81,2.68,2.68,0,0,1,.17,2.47c-1,3.13-4.32,6-7.33,7.24q-.54.26-1,.45c-.4,1.87-.12,2.35-.06,2.43s0,.06.19.06,1-.15,2.74-1.53c2.66-2.14,5.42-6.56,6.55-8.48a1.55,1.55,0,0,1,0-.21,2.12,2.12,0,0,1-.3-.89,7.72,7.72,0,0,1,1.79-5.08,2.38,2.38,0,0,1,3-.82,1.53,1.53,0,0,1,.8,1.05c.25,1.08-.51,2.56-1.09,3.47a6.39,6.39,0,0,0,1.3-.43,2,2,0,0,1,.86-.2,1.67,1.67,0,0,1,1.53.88,1.65,1.65,0,0,1-.32,1.82A22.51,22.51,0,0,0,202,30a2.23,2.23,0,0,0,0,1.62.16.16,0,0,0,.16.07c.19,0,.9-.12,2.37-1.61a4.27,4.27,0,0,1,3.27-4c1.57-2.13,3.46-4.82,4.34-6.32a6.58,6.58,0,0,1,.62-2.59A3.84,3.84,0,0,1,216.11,15a1.83,1.83,0,0,1,1.24.4,1.48,1.48,0,0,1,.49,1.14,3.9,3.9,0,0,1-1.66,2.39c-.23.19-.74,1.21,0,3.43a15.7,15.7,0,0,1,.7,3.31H217c.79,0,1.09-.66,1.36-1.36.13-.33.3-.77.8-.77h.16l.17.08a2.48,2.48,0,0,1,.93,2A2.78,2.78,0,0,1,218.72,28a4.41,4.41,0,0,1-.54.24l-.13.07a3.59,3.59,0,0,1-1.33.38,9,9,0,0,1-1,2.78,5.84,5.84,0,0,1-3,2.4c-2.44,1.23-5.93,1.14-7.14-.7-.1-.14-.17-.28-.25-.41A11,11,0,0,1,202.11,35a3.24,3.24,0,0,1-2.24.47,2.2,2.2,0,0,1-1.54-1.73,4.73,4.73,0,0,1-.45-2.11,15.07,15.07,0,0,1,1.69-5.25,14.13,14.13,0,0,1,1.12-1.71c-.22.05-.45.1-.69.13-1.89,3.3-6.79,10.22-10.94,11.93a3.38,3.38,0,0,1-3.46.22,2.76,2.76,0,0,1-1.17-1.66,5.41,5.41,0,0,1-.35-3.11,3.07,3.07,0,0,1-.68,0c-1.79,3.15-3.65,5.23-5.07,5.67a1.56,1.56,0,0,1-1.09.3,1.83,1.83,0,0,1-1.31-1.45,3.81,3.81,0,0,1-.32-1,7.26,7.26,0,0,1-3.38,3A2.53,2.53,0,0,1,171,39c-.46,0-1.1,0-1.39-1.21a3.74,3.74,0,0,1-.39-1.36c-.18-1.43.59-3.83,1.37-5.8A11.46,11.46,0,0,1,168.75,32c-.52,1-3.88,6.4-7.44,7.79a3.24,3.24,0,0,1-3.79-.12,2.85,2.85,0,0,1-.63-1.19,5.11,5.11,0,0,1-.36-3,15.83,15.83,0,0,1,3.55-7.32,17,17,0,0,1-2,0c-.39.49-.76,1-1.11,1.55l-.62,1a17.78,17.78,0,0,0-1.46,3.31l0-.07c0,.14-.11.29-.15.44a10.53,10.53,0,0,0-.36,1.68,6.17,6.17,0,0,0,1.33,5.21,1.66,1.66,0,0,0,.27.26,5.28,5.28,0,0,0,2.38,1.12c1.5-1.66,3.84-2.65,7-2.95.42-.42.85-.87,1.29-1.36l.48-.58a5.85,5.85,0,0,0,.6,1.84,37.26,37.26,0,0,1,6.39.67,7.66,7.66,0,0,0,.87-.73,4.09,4.09,0,0,0,1.68.87,3.16,3.16,0,0,0,.76.09c1.84,0,3.63-1.64,5.1-3.55a5,5,0,0,0,1.78,2,4.71,4.71,0,0,0,2.64.77c3.07,0,6.3-2.76,8.94-5.81a4.7,4.7,0,0,0,3.46,3.89,4,4,0,0,0,1,.11A7.76,7.76,0,0,0,205,36a5.82,5.82,0,0,0,1.54.76,6.45,6.45,0,0,1,3.65-1.8c.21,0,.42,0,.62,0A5.32,5.32,0,0,1,214,36a7.26,7.26,0,0,0,2.88-2.7,10.56,10.56,0,0,0,1-2.27,5.41,5.41,0,0,0,1.35-.51,4.58,4.58,0,0,0,2.68-4.08,4.25,4.25,0,0,0-.07-.8,4.12,4.12,0,0,0-1.71-2.29,2.74,2.74,0,0,0-1.28-.33,2.58,2.58,0,0,0-1.16.26l0-.07a5.83,5.83,0,0,1-.19-.7,4.19,4.19,0,0,1-.23-1.5,5,5,0,0,0,2-3.54,2.89,2.89,0,0,0,0-.66,3.39,3.39,0,0,0-.92-1.4,3.71,3.71,0,0,0-2.55-.92,5.78,5.78,0,0,0-5.08,3.23,8.33,8.33,0,0,0-.34.82,9.32,9.32,0,0,0-.26,1.45l-.13.21c0,.12,0,.23,0,.35-.6,1-1.53,2.33-2.48,3.67,0-.12,0-.24,0-.36l-.38.54a3.53,3.53,0,0,0,.19-1.84,3.65,3.65,0,0,0-.14-.35,3.53,3.53,0,0,0-2.39-1.86,3.67,3.67,0,0,0,0-.46l-.18-.05a4.49,4.49,0,0,0,0-1.32,3.48,3.48,0,0,0-1.68-1.94,4,4,0,0,0-1.87-.47,4.53,4.53,0,0,0-3.46,1.72,9.1,9.1,0,0,0-1.47,2.35,4.72,4.72,0,0,0-1.63-.27c-2.11,0-4.74,1.21-6.94,3.16a3.19,3.19,0,0,0-2.69-1.43,3.82,3.82,0,0,0-2.26.78,5.79,5.79,0,0,0-.75.71,4.65,4.65,0,0,0-1.35-.61l-.15-.06a4.13,4.13,0,0,0-1.44-.3,2.73,2.73,0,0,0-2.24,1.12l-.16.24a2.75,2.75,0,0,0-1-.17h-.13l-.17,0a2.52,2.52,0,0,0-.84-.32c.17-.12.33-.25.48-.38a1.8,1.8,0,0,0-.63-.21A26.09,26.09,0,0,1,171.59,24.15Z"/><path class="cls-7" d="M208.9,32.24a4.41,4.41,0,0,0,.86-.09c1.71-.32,2.75-1.52,3.11-3.56-1.25-.13-2.51-.28-3.59-.31-.82,1.07-1.61,2-2.37,2.85A2,2,0,0,0,208.9,32.24Zm1-1.43H210l-.18.14Z"/><path class="cls-7" d="M212.72,24.26c-.05-.21-.1-.42-.14-.62l-.07.11c-.42.63-.84,1.24-1.24,1.82l1.66,0A10,10,0,0,0,212.72,24.26Z"/><path class="cls-7" d="M160.92,36.29c.22.52,2.69.12,5.3-4.07a1.91,1.91,0,0,1-.53-1l-.09-.17a2.56,2.56,0,0,1,.23-2.55,1.64,1.64,0,0,1,1.35-.8,1.32,1.32,0,0,1,.34,0,3.35,3.35,0,0,0,.15-.93,1.3,1.3,0,0,0-1.16,0,9.78,9.78,0,0,0-2.58,2.37C161.71,31.93,160.45,35.18,160.92,36.29Zm2.5-2.82.31-.54,0,.07C163.65,33.17,163.54,33.33,163.42,33.47Z"/><path class="cls-7" d="M194.35,22.76a17.78,17.78,0,0,0-4.79,5.79,13.56,13.56,0,0,0,5.21-5.85A1.07,1.07,0,0,0,194.35,22.76Z"/><path class="cls-7" d="M156.34,30.77l.62-1C156.75,30.08,156.54,30.42,156.34,30.77Z"/><path class="cls-7" d="M173.18,22.47a2.4,2.4,0,0,0-1.53,1.6h0l-.06.08a26.09,26.09,0,0,0,2.63-1.75A2.33,2.33,0,0,0,173.18,22.47Z"/><path class="cls-7" d="M160.08,28.15a12.38,12.38,0,0,1,2.81-2.57,7.31,7.31,0,0,1,3.79-1.18,3.66,3.66,0,0,1,2.65,1c.31-.15.61-.3.9-.46a5.06,5.06,0,0,0-2.81-1.38l-.78.34a22.62,22.62,0,0,1-6,1.72,16.27,16.27,0,0,0-2.56,2.61A17,17,0,0,0,160.08,28.15Z"/><path class="cls-7" d="M167.42,23.52h0l-.15.06a23.61,23.61,0,0,1-6.35,1.8l-.27.2a22.62,22.62,0,0,0,6-1.72Z"/><path class="cls-7" d="M183.55,31.84l-.15.25a3.07,3.07,0,0,0,.68,0l0-.23A3.3,3.3,0,0,1,183.55,31.84Z"/><path class="cls-7" d="M166.36,32a2.32,2.32,0,0,1-.67-.78,1.91,1.91,0,0,0,.53,1Z"/><path class="cls-7" d="M216.72,28.68a3.59,3.59,0,0,0,1.33-.38l.13-.07a6,6,0,0,1-1.42.26A1.06,1.06,0,0,1,216.72,28.68Z"/><path class="cls-7" d="M188.49,31.35q.51-.2,1-.45c-.35.14-.7.27-1,.37C188.5,31.3,188.49,31.32,188.49,31.35Z"/><path class="cls-7" d="M181.66,30.35v0a2.25,2.25,0,0,0,.08.24l0,0A2.14,2.14,0,0,1,181.66,30.35Z"/><path class="cls-7" d="M197.87,23.62a1.55,1.55,0,0,0,0,.21l0-.07A.64.64,0,0,1,197.87,23.62Z"/><path class="cls-7" d="M212.91,28.33l-.51,0c-1.07-.11-2.07-.22-2.94-.23l-.18.23c1.08,0,2.34.18,3.59.31C212.88,28.5,212.9,28.42,212.91,28.33Z"/><path class="cls-7" d="M200.09,35.19a2.6,2.6,0,0,1-1.76-1.49,2.2,2.2,0,0,0,1.54,1.73,3.24,3.24,0,0,0,2.24-.47A3.42,3.42,0,0,1,200.09,35.19Z"/><path class="cls-7" d="M209.57,34.46a4.83,4.83,0,0,1-4.16-1.79l-.09.08c.08.13.15.27.25.41,1.21,1.84,4.7,1.93,7.14.7a8.86,8.86,0,0,1-3.14.6Z"/><path class="cls-7" d="M169.61,37.82C169.9,39,170.54,39,171,39a2.53,2.53,0,0,0,1.23-.4,2.61,2.61,0,0,1-.87.17A1.78,1.78,0,0,1,169.61,37.82Z"/><path class="cls-7" d="M177.44,37.81a2.27,2.27,0,0,1-1.51-1.2,1.83,1.83,0,0,0,1.31,1.45,1.56,1.56,0,0,0,1.09-.3,1.81,1.81,0,0,1-.55.09A1.32,1.32,0,0,1,177.44,37.81Z"/><path class="cls-7" d="M157.47,39.28l-.07-.07a3,3,0,0,1-.51-.75,2.85,2.85,0,0,0,.63,1.19,3.24,3.24,0,0,0,3.79.12,4.57,4.57,0,0,1-1.61.32A3.44,3.44,0,0,1,157.47,39.28Z"/><path class="cls-7" d="M194.83,22.51a2.23,2.23,0,0,0-.48.25,1.07,1.07,0,0,1,.42-.06Z"/><path class="cls-7" d="M185.61,36.57a3.2,3.2,0,0,1-1.18-1.32,2.76,2.76,0,0,0,1.17,1.66,3.38,3.38,0,0,0,3.46-.22,4.76,4.76,0,0,1-1.75.38A3.05,3.05,0,0,1,185.61,36.57Z"/><path class="cls-7" d="M200.8,24.47a3.83,3.83,0,0,1-.69.09,1.28,1.28,0,0,1-.11.2c.24,0,.47-.08.69-.13l.07-.09Z"/><path class="cls-7" d="M167.67,26.82v-.2c0-.1,0-.15,0-.15s0,0-.13,0a2.25,2.25,0,0,0-1,.35A1.3,1.3,0,0,1,167.67,26.82Z"/><path class="cls-8" d="M120.79,31.53l-.55-.41c-1.18-.9-2.4-1.82-3.47-2.8-2.64-2.42-1.47-6.22.61-9.2v.24a2.58,2.58,0,0,0,.32,1.1,4.89,4.89,0,0,0,3.15,2.25l.25.07a3.22,3.22,0,0,0,.88.12l.29,0-.06.19a4.72,4.72,0,0,0,.19,2.48l0,.1,0,.06,0,.06a1.42,1.42,0,0,0,.13.22,5.18,5.18,0,0,0,.94,1.08l-.08.26c-.67,2.14-.7,3.89-.13,5.06l0,0a2.7,2.7,0,0,0,1.3,1.24l.16.06a3.75,3.75,0,0,0,1.34.25,5.22,5.22,0,0,0,1.89-.4,15.41,15.41,0,0,0,5.64-4.69,2.83,2.83,0,0,0,.29.85,2.39,2.39,0,0,0,.68.8,2.74,2.74,0,0,0,1.67.55,3.54,3.54,0,0,0,1.24-.24,10.17,10.17,0,0,0,3.72-2.93l0,0a2.14,2.14,0,0,0,1.93,1.22,2.86,2.86,0,0,0,.93-.17q2.22-.78,5.12-5.09l.05-.07,0-.09c.23-.69.11-1,0-1.16a.67.67,0,0,0-.56-.29c-.39,0-.67.27-1.06.77a12.87,12.87,0,0,1-3.36,3.08A27.07,27.07,0,0,1,148,18.49a1.41,1.41,0,0,0,.39-1.42c-.33-1.07-2-1.54-2.51-1.66l-.56-.13-.19.54,0,0a2.66,2.66,0,0,0-1.74-.58h-.16a5,5,0,0,0-2.3.75,7.55,7.55,0,0,0-.77.53,22.42,22.42,0,0,0-5.47,7.62A34.54,34.54,0,0,1,130.69,29a6,6,0,0,1-3.07,1.84.34.34,0,0,1-.31-.12c-.1-.12-.38-.66,0-2.47v0s0-.06,0-.09a7.49,7.49,0,0,0,1.45-.45c2.76-1.16,5.93-4,6.86-7a2.79,2.79,0,0,0-.18-2.51,2.19,2.19,0,0,0-1.88-.81,5.88,5.88,0,0,0-2.09.45,12.44,12.44,0,0,0-4.34,3,16.4,16.4,0,0,0-2.74,4.06l-.15.33a1.37,1.37,0,0,1-.16-.18,4.38,4.38,0,0,1-.25-2.6,15.45,15.45,0,0,0,5.37-4.89A33.35,33.35,0,0,0,132,13.2c1-1.75,1.13-3.2.53-4.3a3.72,3.72,0,0,0-2.65-1.68,4.19,4.19,0,0,0-3.14-1.29c-5.47,0-13.75,8.46-15.65,13.55a8.62,8.62,0,0,0,0,6.67c1.36,3.21,4.64,5.74,8.06,8.07a3.16,3.16,0,0,1,1.5,1.87,1.83,1.83,0,0,1,0,.66c-.56,2.82-7.27,6-11.66,7a28,28,0,0,1-5.78.7c-2.12,0-3.62-.4-4.11-1.08a1.32,1.32,0,0,1-.08-1.23,4.15,4.15,0,0,1,2.12-2.27c2.06-1.09,5.17-1.38,7.84-1.38a39.8,39.8,0,0,1,7.77.74,2,2,0,0,0,.66.12,1.39,1.39,0,0,0,.3,0,1.64,1.64,0,0,0,1.21-1l.26-.67-.69-.19a35.45,35.45,0,0,0-9.39-1.32c-6.14,0-11.4,1.9-12.8,4.62a5.64,5.64,0,0,0-.42,4.93l0,.11c.75,1.57,2.38,2.71,4.86,3.39a13.37,13.37,0,0,0,3.4.35h0a35.73,35.73,0,0,0,13.33-2.81,19,19,0,0,0,6.91-4.91,5.26,5.26,0,0,0,1.5-4,4.65,4.65,0,0,0-.29-1.11C125,34.8,123,33.19,120.79,31.53Zm3.82-5.65a16.41,16.41,0,0,1,3.08-4.9c3.54-3.74,8.59-4.63,7.4-.79-1.1,3.54-5.52,6.81-8.2,7.08,0,.17-.1.35-.14.52-1.13,5,2,3.67,4.43,1.4a34.5,34.5,0,0,0,4-5,21.88,21.88,0,0,1,5.31-7.43c2.35-1.87,4.57-1.23,4.66.29.32-.74.53-1.33.53-1.33s3,.69,1.78,2-4.42,8.13-3.65,8.74,3.49-2.1,4.42-3.32.51.09.51.09c-4.94,7.35-7.09,4.89-7.15,3-1.93,2.45-4.6,4.92-6.55,3.48-.82-.6-.94-1.79-.63-3.22-2.47,3.67-6.56,7.57-9.49,6.28-1.73-.76-1.63-3.44-.61-6.23a4.36,4.36,0,0,1-1.27-1.37c-.58-1.34-.08-1.92-.08-1.92A2.59,2.59,0,0,0,124.61,25.88ZM124,41.07c-5.84,6.92-19.15,8.21-23,7.16-5.1-1.39-5.57-4.6-4.08-7.51,1.7-3.32,10.72-5.94,21.44-3a1,1,0,0,1-1.36.52c-1-.34-16.51-2.79-18.55,3.32-1.19,3.57,5.11,3.67,10.72,2.45s16.51-6.46,10.38-10.66-10-8-7.82-14S125.41,2.59,129.65,7.52c0,0,4.42.35,1.87,5.07s-7,10.13-10.21,9.26-3.24-2.8-3.24-2.8,2.22,2.8,5.62-1.74,6.64-8.74,4.76-9.09-6.2,3.78-10.55,8.91c-3.4,4-4.5,8.63-1.53,11.36C121.14,32.86,128.45,35.83,124,41.07Zm-6-22.79.35-.42c4.18-4.94,7-7.43,8.68-8.32a2.7,2.7,0,0,1,1.15-.39h.14a.9.9,0,0,1,0,.31c-.33,1.3-3,4.81-4.76,7.21l-.4.54c-1.15,1.53-2.27,2.34-3.25,2.34a1.82,1.82,0,0,1-1.34-.61Z"/><path class="cls-8" d="M137.81,27.79s1.48.46,4.05-3a24.12,24.12,0,0,1,1.25-3.53c-.46.29-.9.17-1.21-.71a3.75,3.75,0,0,0,2.64-3.3c.16-1.57-1.79-1.13-4.34,2.18S136.45,27.27,137.81,27.79Zm2.86-7.69a10.18,10.18,0,0,1,2.56-2.53,2,2,0,0,1,.63-.27,1,1,0,0,1,0,.16.5.5,0,0,1,0,.12,3.1,3.1,0,0,1-2.13,2.62l-.69.17.24.67a2.54,2.54,0,0,0,.31.64,1.57,1.57,0,0,0,.53.51l-.1.27a20.52,20.52,0,0,0-.77,2.33c-1.85,2.48-3,2.67-3.24,2.68a.47.47,0,0,1-.07-.17C137.6,26.22,138.53,22.88,140.67,20.1Z"/><path class="cls-8" d="M134.07,18.53c-1.49-.31-5.33,4.11-6.84,7.78C130.53,25.38,135.41,18.81,134.07,18.53Zm-5.46,6.65a17.2,17.2,0,0,1,4.55-5.43l.35-.19s0,.09-.07.14A17.59,17.59,0,0,1,128.61,25.18Z"/><path class="cls-8" d="M159.08,25.49a16.43,16.43,0,0,0,1.82-.11,23.61,23.61,0,0,0,6.35-1.8l.15-.06.46-.2c7.91-3.54,10.4-7.89,11.09-11a9.48,9.48,0,0,0-2.24-8.47c-1.78-2-5-3-9.27-3A38.57,38.57,0,0,0,154.91,3.2c-1.59.59-3.25,1.28-4.86,1.94-3.73,1.54-7.58,3.13-9.87,3.14h0a2.21,2.21,0,0,1-1.47-.41L138,7.22l-.39-.34,0,.36,0,1.14a9.74,9.74,0,0,0,.71,3.31,2.52,2.52,0,0,0,2.24,1.7l.34,0a16,16,0,0,0,3.36-1.27c.91-.42,2-.92,3.27-1.53s2.72-1.27,4.19-1.94a74,74,0,0,1,10.39-4V4.7L162,5.82a15.62,15.62,0,0,1-1.31,3.79c-.23.5-1,1.82-1.61,3A11.34,11.34,0,0,0,153.12,16a5.81,5.81,0,0,0-1.66,4.33,4.76,4.76,0,0,0,.44,1.62A5.14,5.14,0,0,0,153,23.43l-.11.2c-5.61,10.16-6.46,12-6.45,13.32a4.25,4.25,0,0,0,.95,2.84A5.21,5.21,0,0,0,150,41.4a8.06,8.06,0,0,0,2,.3,9.68,9.68,0,0,1-1-1.83c-.29-.81-.51-2.6,1.44-6.23,1.21-2.26,2.91-5.06,4.73-8l.15-.25A12,12,0,0,0,159.08,25.49Zm-2-1.13c-1.95,3.19-3.82,6.23-5.13,8.67-1.62,3-2.26,5.29-1.74,6.69a2.09,2.09,0,0,0,.45.8l-.2,0c-.85,0-3.06-.92-3.19-3.93-.06-1.3,3.19-7.46,6.59-13.59-2.15-1.71-2.34-4.54-.21-6.9a10.91,10.91,0,0,1,5.89-3.22c.9-1.6,1.54-2.79,1.77-3.28a15.72,15.72,0,0,0,1.36-4s.34.87,2.21,1.22c1.44.27.87,2.19-.94,5.68a20.39,20.39,0,0,1,3.67.44c1.53.35.85,1.4.85,1.4a13.44,13.44,0,0,0-4.94-1c-.45.85-1,1.78-1.53,2.78-1,1.72-2,3.51-3.11,5.3a16.16,16.16,0,0,0,3.45-.23c6.13-1,14-7.51,14.64-11.7s-4.43-8-13.62-6.12c-7.46,1.56-20.08,8.74-22.46,9.09s-2.56-4.37-2.56-4.37c2.39,2.09,10.22-2.1,16.85-4.55S172.36-.34,176.28,4s4,13-9.24,18.65C162.92,24.44,159.55,24.81,157.07,24.36Zm12-10.74a1.78,1.78,0,0,0-1.4-1,20.19,20.19,0,0,0-2.79-.41c1.31-2.64,1.63-4,1.2-4.88A1.53,1.53,0,0,0,165,6.49c-1.3-.24-1.68-.74-1.73-.83l-.32-1.14,0-.12.56-.13a22,22,0,0,1,4.48-.5c3.29,0,6,1,7.41,2.62A4.27,4.27,0,0,1,176.18,8a3.84,3.84,0,0,1,.1,1.69c-.61,3.72-8,10.13-14.11,11.17a16.94,16.94,0,0,1-2.2.23c1-1.7,1.83-3.09,2.53-4.34.48-.86.88-1.57,1.22-2.21l.13-.24a13,13,0,0,1,4.31,1h0l.5.2L169,15A1.6,1.6,0,0,0,169.1,13.62Z"/><path class="cls-8" d="M154.49,17c-1.29,1.41-.84,2.74.72,3.57,1.31-2.34,2.58-4.57,3.62-6.42A11.29,11.29,0,0,0,154.49,17Zm2.73-1.08-.11.19-2.17,3.85a1.48,1.48,0,0,1-.58-.86,1.75,1.75,0,0,1,.57-1.36A10,10,0,0,1,157.22,15.88Z"/><path class="cls-8" d="M209.92,32.48c2.71-.51,3.58-2.82,3.75-5-1.58-.14-3.21-.36-4.49-.34a46.34,46.34,0,0,1-3,3.58C206.55,31.91,207.7,32.9,209.92,32.48Zm-.64-4.2.18-.23c.87,0,1.87.12,2.94.23l.51,0c0,.09,0,.17,0,.26-.36,2-1.4,3.24-3.11,3.56a4.41,4.41,0,0,1-.86.09,2,2,0,0,1-2-1.11C207.67,30.31,208.46,29.35,209.28,28.28Z"/><path class="cls-8" d="M162.89,25.58a12.38,12.38,0,0,0-2.81,2.57,15.83,15.83,0,0,0-3.55,7.32,5.11,5.11,0,0,0,.36,3,3,3,0,0,0,.51.75l.07.07a3.44,3.44,0,0,0,2.23.81,4.57,4.57,0,0,0,1.61-.32c3.56-1.39,6.92-6.77,7.44-7.79a11.46,11.46,0,0,0,1.84-1.32c-.78,2-1.55,4.37-1.37,5.8a3.74,3.74,0,0,0,.39,1.36,1.78,1.78,0,0,0,1.75,1,2.61,2.61,0,0,0,.87-.17,7.26,7.26,0,0,0,3.38-3,3.81,3.81,0,0,0,.32,1,2.27,2.27,0,0,0,1.51,1.2,1.32,1.32,0,0,0,.34,0,1.81,1.81,0,0,0,.55-.09c1.42-.44,3.28-2.52,5.07-5.67l.15-.25a3.3,3.3,0,0,0,.56.07l0,.23a5.41,5.41,0,0,0,.35,3.11,3.2,3.2,0,0,0,1.18,1.32,3.05,3.05,0,0,0,1.7.5,4.76,4.76,0,0,0,1.75-.38c4.15-1.71,9.05-8.63,10.94-11.93a1.28,1.28,0,0,0,.11-.2,3.83,3.83,0,0,0,.69-.09l0,.07-.07.09a14.13,14.13,0,0,0-1.12,1.71,15.07,15.07,0,0,0-1.69,5.25,4.73,4.73,0,0,0,.45,2.11,2.6,2.6,0,0,0,1.76,1.49,3.42,3.42,0,0,0,2-.23,11,11,0,0,0,3.21-2.21l.09-.08a4.83,4.83,0,0,0,4.16,1.79h0a8.86,8.86,0,0,0,3.14-.6,5.84,5.84,0,0,0,3-2.4,9,9,0,0,0,1-2.78,1.06,1.06,0,0,0,0-.19,6,6,0,0,0,1.42-.26,4.41,4.41,0,0,0,.54-.24,2.78,2.78,0,0,0,1.73-2.44,2.48,2.48,0,0,0-.93-2l-.17-.08h-.16c-.5,0-.67.44-.8.77-.27.7-.57,1.34-1.36,1.36h-.18a15.7,15.7,0,0,0-.7-3.31c-.71-2.22-.2-3.24,0-3.43a3.9,3.9,0,0,0,1.66-2.39,1.48,1.48,0,0,0-.49-1.14,1.83,1.83,0,0,0-1.24-.4,3.84,3.84,0,0,0-3.33,2.13,6.58,6.58,0,0,0-.62,2.59c-.88,1.5-2.77,4.19-4.34,6.32a4.27,4.27,0,0,0-3.27,4c-1.47,1.49-2.18,1.61-2.37,1.61a.16.16,0,0,1-.16-.07A2.23,2.23,0,0,1,202,30a22.51,22.51,0,0,1,3.38-6.54,1.65,1.65,0,0,0,.32-1.82,1.67,1.67,0,0,0-1.53-.88,2,2,0,0,0-.86.2,6.39,6.39,0,0,1-1.3.43c.58-.91,1.34-2.39,1.09-3.47a1.53,1.53,0,0,0-.8-1.05,2.38,2.38,0,0,0-3,.82,7.72,7.72,0,0,0-1.79,5.08,2.12,2.12,0,0,0,.3.89.64.64,0,0,0,.08.14l0,.07c-1.13,1.92-3.89,6.34-6.55,8.48-1.73,1.38-2.49,1.53-2.74,1.53s-.17,0-.19-.06-.34-.56.06-2.43c0,0,0-.05,0-.08.34-.1.69-.23,1-.37,3-1.24,6.34-4.11,7.33-7.24a2.68,2.68,0,0,0-.17-2.47,2.19,2.19,0,0,0-1.89-.81c-1.87,0-4.46,1.37-6.43,3.41a18,18,0,0,0-3.72,6h-.07c.28-.58.55-1.17.8-1.77,1.19-2.77,1.47-4.47.88-5.36a1.24,1.24,0,0,0-1.08-.58,1.87,1.87,0,0,0-1.1.39c-.9.67-3.5,4.22-2.7,7.14a3.4,3.4,0,0,0,.27.7,2.14,2.14,0,0,0,.1.22l0,0a12.77,12.77,0,0,1-2.36,3.12h0a7.06,7.06,0,0,1,.31-2.87,28.18,28.18,0,0,1,1.71-5.18l.2-.45a1.71,1.71,0,0,0,0-1.37,2,2,0,0,0-1.34-.95l-.27-.09a2.41,2.41,0,0,0-.78-.19.78.78,0,0,0-.66.33c-.08.09-.24.33-1.63,4.94,0,0-.33,1.05-.7,2.33a18.84,18.84,0,0,1-2.2,3.84,5.29,5.29,0,0,1-.78.84,10.82,10.82,0,0,1,1.13-4.2l.47-1c1.63-3.52,2.16-4.81,1.73-5.49a.83.83,0,0,0-.71-.38h0a2.39,2.39,0,0,1-1.22-.28L174,23.1l-.28.76c0,.07-.07.15-.11.26a40.37,40.37,0,0,1-3.31,4.26,4.36,4.36,0,0,1-.56.47,5.1,5.1,0,0,0,.29-2.13,2.18,2.18,0,0,0-.65-1.36,3.66,3.66,0,0,0-2.65-1A7.31,7.31,0,0,0,162.89,25.58Zm6.49.9a4.93,4.93,0,0,1-.81,3c.27.31,1.26,0,2.18-.94a45.34,45.34,0,0,0,3.42-4.4c.06-.14.11-.26.14-.35a3,3,0,0,0,1.6.39c.81,0-.75,3.1-2.07,6-1.57,3.41-1.82,7.31.75,4a20.07,20.07,0,0,0,2.31-4c.37-1.31.7-2.36.7-2.36S179,23.27,179.13,23s.64.09,1,.2c1.14.33,1.12.89.9,1.45a29.13,29.13,0,0,0-1.94,5.73c-.82,3.51-.14,4.07.66,3.56a13.55,13.55,0,0,0,2.81-3.74,2.53,2.53,0,0,1-.51-1c-.69-2.52,1.6-5.82,2.46-6.47s2.62-.58.32,4.78c-.38.88-.76,1.71-1.15,2.47a2.65,2.65,0,0,0,1.49.17,17.1,17.1,0,0,1,3.71-6.2c3.54-3.68,8.6-4.56,7.4-.78-1.06,3.38-5.22,6.54-8.28,7.28l-.06.2c-1.12,4.89,1.31,3.91,3.86,1.86,3-2.43,6.16-7.7,7-9.15a1.36,1.36,0,0,1-.55-1c-.23-1.9,1.75-6.35,3.83-5.25,1.58.84-1,4.33-1,4.33-.17.67,1.68.22,2.62-.23s2.21.32,1.27,1.53a23.3,23.3,0,0,0-3.49,6.76c-.65,2.31.43,4,3.79.51a3.65,3.65,0,0,1,3-3.72c1.5-2,3.67-5.09,4.59-6.7a6,6,0,0,1,.57-2.49c.82-1.7,2.94-2.09,3.54-1.54.91.84-.65,2.17-1.13,2.55s-1,1.65-.24,4.14a14.6,14.6,0,0,1,.71,3.74c.31,0,.58,0,.8,0,1.79,0,1.94-2.25,2.16-2.13s1.62,2-.8,3.28a5,5,0,0,1-2.21.45,8.59,8.59,0,0,1-1.06,3.27c-1.68,2.92-7.56,3.64-9.21,1.14a4.38,4.38,0,0,1-.37-.66c-3,3-4.57,3.11-5.33,2.93-1.19-.27-1.7-1.64-1.7-3a14.56,14.56,0,0,1,1.62-5c.59-1.17,2.51-3.34,1.87-3.16a7.54,7.54,0,0,1-2.29.45c-2.24,4.15-9.84,14.64-13.77,12.11-1.38-.89-1.56-2.74-1.05-4.81a3,3,0,0,1-1.67-.16c-2.29,4.24-4.57,6.38-5.64,6.12-1.44-.36-1.57-2.17-1.37-3.86-2.33,4.51-4.4,4.83-4.87,4.83s-1.28,0-1.5-1.77,1.31-5.62,2.36-7.89l.24-.5a17.85,17.85,0,0,1-4.21,3.51l0,.11c-.46,1.07-6.39,10.37-10.32,7.16-2.49-2.75,1.54-10.24,5.36-12.64C166.17,24,169.18,24.64,169.38,26.48Z"/><path class="cls-8" d="M195.27,21.53c-1.53-.31-5.54,4.29-7,8C192.71,28.22,196.64,21.81,195.27,21.53Zm-5.71,7a17.78,17.78,0,0,1,4.79-5.79,2.23,2.23,0,0,1,.48-.25l-.06.19A13.56,13.56,0,0,1,189.56,28.55Z"/><path class="cls-8" d="M183,29.38a21.29,21.29,0,0,0,.89-1.95c.9-2,.92-3.35,0-2.22s-1.43,2.9-1,3.89A2.39,2.39,0,0,0,183,29.38Z"/><path class="cls-8" d="M213.68,25.91a13.11,13.11,0,0,0-.29-2.1c-.18-.78-.32-1.5-.41-2.17l-1,1.44c-.71,1.07-1.38,2-2,2.92A32.07,32.07,0,0,1,213.68,25.91Zm-2.41-.34c.4-.58.82-1.19,1.24-1.82l.07-.11c0,.2.09.41.14.62a10,10,0,0,1,.21,1.29Z"/><path class="cls-8" d="M207.39,27.43a2.49,2.49,0,0,0-1.11,1.4c.29-.34.59-.72.91-1.13Z"/><path class="cls-8" d="M163.47,28.45c-2.64,3.28-4.34,7.93-2.36,8.51,0,0,2.8.36,6.1-5.37l.19-.16a1.81,1.81,0,0,1-1-2.85.93.93,0,0,1,1.46-.29,3.48,3.48,0,0,0,.49-2C168.34,24.82,166,25.27,163.47,28.45Zm3-1.66a2.25,2.25,0,0,1,1-.35c.09,0,.13,0,.13,0s0,.05,0,.15v.2a3.35,3.35,0,0,1-.15.93,1.32,1.32,0,0,0-.34,0,1.64,1.64,0,0,0-1.35.8,2.56,2.56,0,0,0-.23,2.55l.09.17a2.32,2.32,0,0,0,.67.78l-.14.21c-2.61,4.19-5.08,4.59-5.3,4.07-.47-1.11.79-4.36,3-7.13A9.78,9.78,0,0,1,166.51,26.79Z"/><path class="cls-3" d="M116.37,28.49c-3-2.73-1.87-7.34,1.53-11.36,4.35-5.13,8.68-9.26,10.55-8.91s-1.36,4.55-4.76,9.09-5.62,1.74-5.62,1.74,0,1.93,3.24,2.8,7.65-4.54,10.21-9.26-1.87-5.07-1.87-5.07C125.41,2.59,114,13.46,111.78,19.4s1.7,9.79,7.82,14S114.84,42.82,109.22,44,97.31,45.16,98.5,41.59c2-6.11,17.53-3.66,18.55-3.32a1,1,0,0,0,1.36-.52c-10.72-3-19.74-.35-21.44,3-1.49,2.91-1,6.12,4.08,7.51,3.83,1.05,17.14-.24,23-7.16C128.45,35.83,121.14,32.86,116.37,28.49Z"/><path class="cls-3" d="M123,23.25s-.5.58.08,1.92a4.36,4.36,0,0,0,1.27,1.37c-1,2.79-1.12,5.47.61,6.23,2.93,1.29,7-2.61,9.49-6.28-.31,1.43-.19,2.62.63,3.22,1.95,1.44,4.62-1,6.55-3.48.06,1.91,2.21,4.37,7.15-3,0,0,.43-1.31-.51-.09s-3.66,3.93-4.42,3.32,2.46-7.43,3.65-8.74-1.78-2-1.78-2-.21.59-.53,1.33c-.09-1.52-2.31-2.16-4.66-.29a21.88,21.88,0,0,0-5.31,7.43,34.5,34.5,0,0,1-4,5c-2.39,2.27-5.56,3.58-4.43-1.4,0-.17.09-.35.14-.52,2.68-.27,7.1-3.54,8.2-7.08,1.19-3.84-3.86-3-7.4.79a16.41,16.41,0,0,0-3.08,4.9A2.59,2.59,0,0,1,123,23.25ZM140.2,19.4c2.55-3.31,4.5-3.75,4.34-2.18a3.75,3.75,0,0,1-2.64,3.3c.31.88.75,1,1.21.71a24.12,24.12,0,0,0-1.25,3.53c-2.57,3.49-4.05,3-4.05,3C136.45,27.27,137.64,22.72,140.2,19.4Zm-6.13-.87c1.34.28-3.54,6.85-6.84,7.78C128.74,22.64,132.58,18.22,134.07,18.53Z"/><path class="cls-3" d="M167,22.68C180.28,17.05,180.19,8.4,176.28,4s-14.47-3-21.11-.53-14.46,6.64-16.85,4.55c0,0,.17,4.71,2.56,4.37s15-7.53,22.46-9.09c9.19-1.92,14.3,1.92,13.62,6.12s-8.51,10.65-14.64,11.7a16.16,16.16,0,0,1-3.45.23C160,19.59,161,17.8,162,16.08c.57-1,1.08-1.93,1.53-2.78a13.44,13.44,0,0,1,4.94,1s.68-1.05-.85-1.4a20.39,20.39,0,0,0-3.67-.44c1.81-3.49,2.38-5.41.94-5.68-1.87-.35-2.21-1.22-2.21-1.22a15.72,15.72,0,0,1-1.36,4c-.23.49-.87,1.68-1.77,3.28a10.91,10.91,0,0,0-5.89,3.22c-2.13,2.36-1.94,5.19.21,6.9-3.4,6.13-6.65,12.29-6.59,13.59.13,3,2.34,3.93,3.19,3.93l.2,0a2.09,2.09,0,0,1-.45-.8c-.52-1.4.12-3.67,1.74-6.69,1.31-2.44,3.18-5.48,5.13-8.67C159.55,24.81,162.92,24.44,167,22.68Zm-11.83-2.15c-1.56-.83-2-2.16-.72-3.57a11.29,11.29,0,0,1,4.34-2.85C157.79,16,156.52,18.19,155.21,20.53Z"/><path class="cls-3" d="M163.28,25.83c-3.82,2.4-7.85,9.89-5.36,12.64,3.93,3.21,9.86-6.09,10.32-7.16l0-.11a17.85,17.85,0,0,0,4.21-3.51l-.24.5c-1,2.27-2.58,6.1-2.36,7.89s1,1.77,1.5,1.77,2.54-.32,4.87-4.83c-.2,1.69-.07,3.5,1.37,3.86,1.07.26,3.35-1.88,5.64-6.12a3,3,0,0,0,1.67.16c-.51,2.07-.33,3.92,1.05,4.81,3.93,2.53,11.53-8,13.77-12.11a7.54,7.54,0,0,0,2.29-.45c.64-.18-1.28,2-1.87,3.16a14.56,14.56,0,0,0-1.62,5c0,1.33.51,2.7,1.7,3,.76.18,2.36,0,5.33-2.93A4.38,4.38,0,0,0,206,32c1.65,2.5,7.53,1.78,9.21-1.14a8.59,8.59,0,0,0,1.06-3.27,5,5,0,0,0,2.21-.45c2.42-1.32,1-3.15.8-3.28s-.37,2.09-2.16,2.13c-.22,0-.49,0-.8,0a14.6,14.6,0,0,0-.71-3.74c-.8-2.49-.23-3.77.24-4.14s2-1.71,1.13-2.55c-.6-.55-2.72-.16-3.54,1.54a6,6,0,0,0-.57,2.49c-.92,1.61-3.09,4.67-4.59,6.7a3.65,3.65,0,0,0-3,3.72c-3.36,3.51-4.44,1.8-3.79-.51A23.3,23.3,0,0,1,205,22.72c.94-1.21-.34-2-1.27-1.53s-2.79.9-2.62.23c0,0,2.6-3.49,1-4.33C200,16,198,20.44,198.25,22.34a1.36,1.36,0,0,0,.55,1c-.83,1.45-4,6.72-7,9.15-2.55,2-5,3-3.86-1.86l.06-.2c3.06-.74,7.22-3.9,8.28-7.28,1.2-3.78-3.86-2.9-7.4.78a17.1,17.1,0,0,0-3.71,6.2,2.65,2.65,0,0,1-1.49-.17c.39-.76.77-1.59,1.15-2.47,2.3-5.36.48-5.38-.32-4.78s-3.15,4-2.46,6.47a2.53,2.53,0,0,0,.51,1A13.55,13.55,0,0,1,179.76,34c-.8.51-1.48,0-.66-3.56A29.13,29.13,0,0,1,181,24.68c.22-.56.24-1.12-.9-1.45-.37-.11-.88-.37-1-.2s-1.53,4.76-1.53,4.76-.33,1.05-.7,2.36a20.07,20.07,0,0,1-2.31,4c-2.57,3.29-2.32-.61-.75-4,1.32-2.87,2.88-6,2.07-6a3,3,0,0,1-1.6-.39c0,.09-.08.21-.14.35a45.34,45.34,0,0,1-3.42,4.4c-.92.91-1.91,1.25-2.18.94a4.93,4.93,0,0,0,.81-3C169.18,24.64,166.17,24,163.28,25.83ZM212,23.08l1-1.44c.09.67.23,1.39.41,2.17a13.11,13.11,0,0,1,.29,2.1A32.07,32.07,0,0,0,210,26C210.63,25.12,211.3,24.15,212,23.08Zm-4.62,4.35-.2.27c-.32.41-.62.79-.91,1.13A2.49,2.49,0,0,1,207.39,27.43Zm1.79-.33c1.28,0,2.91.2,4.49.34-.17,2.22-1,4.53-3.75,5-2.22.42-3.37-.57-3.7-1.8A46.34,46.34,0,0,0,209.18,27.1Zm-13.91-5.57c1.37.28-2.56,6.69-7,8C189.73,25.82,193.74,21.22,195.27,21.53Zm-11.38,3.68c1-1.13.94.18,0,2.22a21.29,21.29,0,0,1-.89,1.95,2.39,2.39,0,0,1-.13-.28C182.46,28.11,182.94,26.34,183.89,25.21Zm-15.53,1.1a3.48,3.48,0,0,1-.49,2,.93.93,0,0,0-1.46.29,1.81,1.81,0,0,0,1,2.85l-.19.16c-3.3,5.73-6.1,5.37-6.1,5.37-2-.58-.28-5.23,2.36-8.51S168.34,24.82,168.36,26.31Z"/><path class="cls-7" d="M213.69,47.09c-2.93,3.51-8,5.44-14.19,5.44h0a45.35,45.35,0,0,1-14.86-2.86,81,81,0,0,0-9-2.68,4.91,4.91,0,0,1,0,1.08c-.31,3.1-3.9,6.23-11.21,6.23a36.29,36.29,0,0,1-10.21-1.66C141.42,48.84,126.15,45,126,45a2.39,2.39,0,0,1-1.75-1.72,1.45,1.45,0,0,1,0-.28,1.41,1.41,0,0,0-.06.84,2.37,2.37,0,0,0,.47,1c-5.73,5.83-15.59,7.42-20.73,7.42a15,15,0,0,1-3.85-.4c-3.12-.85-5.17-2.4-6.11-4.59a7,7,0,0,1-.21-4.68,7.15,7.15,0,0,0,.07,5.33c1,2.2,3,3.74,6.18,4.6a15.44,15.44,0,0,0,3.91.41h0c5.24,0,15.37-1.65,21.1-7.71a2.64,2.64,0,0,0,1,.51c.16,0,15.43,3.85,28.25,7.65A36.35,36.35,0,0,0,164.44,55c7.38,0,11-3.21,11.29-6.4a4.31,4.31,0,0,0,0-.88,83.22,83.22,0,0,1,8.89,2.65,45.35,45.35,0,0,0,14.86,2.86h0c6.23,0,11.28-1.94,14.22-5.46,2.06-2.47,2.95-5.21,2.53-7.62A9.67,9.67,0,0,1,213.69,47.09Z"/><path class="cls-7" d="M205.88,40.08a2.51,2.51,0,0,0,1.8,1.4,1.75,1.75,0,0,1,0,.62,2.27,2.27,0,0,0,0-1.31,2.41,2.41,0,0,1-1.76-1.3,2.22,2.22,0,0,1-.22-1.23A2.5,2.5,0,0,0,205.88,40.08Z"/><path class="cls-7" d="M156.71,47.14a4.84,4.84,0,0,1,0-1.07,5.62,5.62,0,0,0-.14,1Z"/><path class="cls-7" d="M177.41,41.24a4,4,0,0,0,.49,0c-.88-.23-1.74-.44-2.59-.62a4.37,4.37,0,0,0,1.29.56A3.59,3.59,0,0,0,177.41,41.24Z"/><path class="cls-7" d="M213.67,36.14a5.28,5.28,0,0,0-2.88-.85q-.31,0-.63,0a6.54,6.54,0,0,0-3.35,1.52l-.28-.09c-.08.07-.13.13-.17.17a2.18,2.18,0,0,0-.26.36l.18.07a2.57,2.57,0,0,0-.51.91,2.22,2.22,0,0,0,.22,1.23,2.41,2.41,0,0,0,1.76,1.3,2.27,2.27,0,0,1,0,1.31,3,3,0,0,1-.55,1.43A6,6,0,0,1,204,46a11.77,11.77,0,0,1-4.73.85c-5.09,0-11.46-2.09-16.59-3.76L181,42.49a57,57,0,0,0-6.54-1.7c.12-.09.24-.2.36-.3l-.73-.15-.44.3a36.92,36.92,0,0,0-5.71-.59c-.09-.12-.16-.25-.24-.38h-.43c0,.13.1.25.16.37-.59,0-1.15,0-1.69.06l.38-.39c-.27,0-.53,0-.79.06l-.45.41a10.57,10.57,0,0,0-6.23,2.58l-.29,0c-.16.18-.32.37-.47.57l.23.05a7.19,7.19,0,0,0-.61.84,6.8,6.8,0,0,0-.81,1.89,4.84,4.84,0,0,0,0,1.07l-.12,0a2.41,2.41,0,0,0,0,.38c-2.38-.6-5.15-1.4-8.14-2.27-6.22-1.79-13.27-3.82-20.53-5.19a2.19,2.19,0,0,0-.36,0c0-.13,0-.25,0-.38h-.16c0,.12,0,.25,0,.37a2.49,2.49,0,0,0-1.55.61l-.43.93A4.08,4.08,0,0,0,124.2,43a1.45,1.45,0,0,0,0,.28A2.39,2.39,0,0,0,126,45c.16,0,15.43,3.85,28.25,7.65a36.29,36.29,0,0,0,10.21,1.66c7.31,0,10.9-3.13,11.21-6.23a4.91,4.91,0,0,0,0-1.08,81,81,0,0,1,9,2.68,45.35,45.35,0,0,0,14.86,2.86h0c6.23,0,11.26-1.93,14.19-5.44a9.67,9.67,0,0,0,2.55-6.94,6.92,6.92,0,0,0-.51-1.64,5.73,5.73,0,0,0-1.52-2l.26-.15A6.12,6.12,0,0,0,214,36Zm.72,1.81c1,2.06.31,4.77-1.75,7.25a12.2,12.2,0,0,1-5,3.46c-4.81,2.13-12.3,2.26-22.15-1.19-6.42-2.26-10.38-3.11-12.79-3.37a3.27,3.27,0,0,1,1.55,3c-.13,1.41-1.38,2.89-3.8,3.8-2.93,1.32-8.11,1.71-15.48-.47-13-3.87-28.35-7.69-28.35-7.69l.24-.2h0l-1.17-.29.91-.8c.2-.16.88-.75.88-.75l.23-.19.29.05c7.18,1.35,14.19,3.37,20.36,5.15a119.87,119.87,0,0,0,12.47,3.19,2.54,2.54,0,0,1-1.61-1.7,3.22,3.22,0,0,1,.36-3.36c1.32-2.15,4.13-3.24,8.36-3.24a44.36,44.36,0,0,1,12.94,2.36l1.66.55c5.25,1.71,11.79,3.85,17.17,3.85a13.57,13.57,0,0,0,5.5-1,7.76,7.76,0,0,0,4-3.11,4.31,4.31,0,0,0,.71-3.72,1.09,1.09,0,0,0-.08-.15,1.8,1.8,0,0,0-1.56-.85,3.3,3.3,0,0,1,.29-.27,4.49,4.49,0,0,0-1.42.13s1.49-2.34,3.7-2.51A3.66,3.66,0,0,1,214.39,38Z"/><path class="cls-7" d="M125.3,41.39c-.59.51-1.13.93-1.1,1.6a4.08,4.08,0,0,1,1.18-1.46l.43-.93a2.49,2.49,0,0,1,1.55-.61c0-.12,0-.25,0-.37a2.42,2.42,0,0,0-1.54.59Z"/><path class="cls-7" d="M158.39,42.72l.29,0a10.57,10.57,0,0,1,6.23-2.58l.45-.41C162.23,40.07,159.89,41.06,158.39,42.72Z"/><path class="cls-7" d="M168,40.05a36.92,36.92,0,0,1,5.71.59l.44-.3a37.26,37.26,0,0,0-6.39-.67C167.81,39.8,167.88,39.93,168,40.05Z"/><path class="cls-7" d="M210.18,35a6.45,6.45,0,0,0-3.65,1.8l.28.09a6.54,6.54,0,0,1,3.35-1.52q.32,0,.63,0a5.28,5.28,0,0,1,2.88.85L214,36a5.32,5.32,0,0,0-3.19-1.07C210.6,34.91,210.39,34.93,210.18,35Z"/><path class="cls-7" d="M164.74,49.12c3.52-.1,4.63-1.2,4.95-1.68a1.29,1.29,0,0,0,.23-.87c-.63-.89-2.54-1.19-3.83-.73a.44.44,0,0,0-.18.3c-.17,1.14,2.14,1.49,2.14,1.49a9.56,9.56,0,0,1-2.2,1l.11,0A6,6,0,0,1,164.74,49.12Z"/><path class="cls-7" d="M208.47,38.21a3.3,3.3,0,0,0-.29.27,1.8,1.8,0,0,1,1.56.85,1.09,1.09,0,0,1,.08.15,3.83,3.83,0,0,0-.27-.67A1.26,1.26,0,0,0,208.47,38.21Z"/><path class="cls-7" d="M169.92,46.57a1.56,1.56,0,0,0-.1-.37c-.18-.43-1.08-.77-2-.77a2.85,2.85,0,0,0-1.69.41C167.38,45.38,169.29,45.68,169.92,46.57Z"/><path class="cls-7" d="M155.13,50.17c-12.59-3.73-27.53-7.47-28.29-7.66l-.24.2S141.93,46.53,155,50.4c7.37,2.18,12.55,1.79,15.48.47a16.14,16.14,0,0,1-5.62.88A34.41,34.41,0,0,1,155.13,50.17Z"/><path class="cls-7" d="M164.21,49.13h.53a6,6,0,0,0,1.22-.4l-.11,0a7.34,7.34,0,0,1-2.36.42c-2,0-3.65-.73-4.31-1.91l0,0a2.54,2.54,0,0,0,1.61,1.7c.42.07.83.12,1.2.15C162.76,49.09,163.52,49.13,164.21,49.13Z"/><path class="cls-7" d="M199.86,50a43.48,43.48,0,0,1-14.24-2.75c-7.06-2.47-11.09-3.24-13.35-3.39a4.1,4.1,0,0,1,.41.26c2.41.26,6.37,1.11,12.79,3.37,9.85,3.45,17.34,3.32,22.15,1.19A21.23,21.23,0,0,1,199.86,50Z"/><path class="cls-6" d="M108.67,41.17c-4.9,0-7.32,1-8.07,2a4.5,4.5,0,0,0,.61.13,10.53,10.53,0,0,0,1.69.12,26.6,26.6,0,0,0,5.42-.66,23.51,23.51,0,0,0,2.9-.85c.48-.18,1-.36,1.43-.56C111.48,41.26,110.1,41.17,108.67,41.17Z"/><path class="cls-6" d="M170.4,13.81a3.24,3.24,0,0,1,.18.66,4.22,4.22,0,0,1,0,.49l.08-.06A13.06,13.06,0,0,0,174,10.84a2.36,2.36,0,0,0,.19-.63,2,2,0,0,0-.5-1.69c-1.15-1.39-3.78-2.16-6.92-2a3.17,3.17,0,0,1,.49.65,2,2,0,0,1,.13.25,3.46,3.46,0,0,1,.29.93,6.23,6.23,0,0,1-.47,3.24l.32.06.22,0A3.51,3.51,0,0,1,170.4,13.81Z"/><path class="cls-6" d="M120.79,31.53l-.55-.41c-1.18-.9-2.4-1.82-3.47-2.8-2.64-2.42-1.47-6.22.61-9.2v.24a2.58,2.58,0,0,0,.32,1.1,4.89,4.89,0,0,0,3.15,2.25l.25.07a3.22,3.22,0,0,0,.88.12l.29,0-.06.19a4.72,4.72,0,0,0,.19,2.48l0,.1,0,.06,0,.06a1.42,1.42,0,0,0,.13.22,5.18,5.18,0,0,0,.94,1.08l-.08.26c-.67,2.14-.7,3.89-.13,5.06l0,0a2.7,2.7,0,0,0,1.3,1.24l.16.06a3.75,3.75,0,0,0,1.34.25,5.22,5.22,0,0,0,1.89-.4,15.41,15.41,0,0,0,5.64-4.69,2.83,2.83,0,0,0,.29.85,2.39,2.39,0,0,0,.68.8,2.74,2.74,0,0,0,1.67.55,3.54,3.54,0,0,0,1.24-.24,10.17,10.17,0,0,0,3.72-2.93l0,0a2.14,2.14,0,0,0,1.93,1.22,2.86,2.86,0,0,0,.93-.17q2.22-.78,5.12-5.09l.05-.07,0-.09c.23-.69.11-1,0-1.16a.67.67,0,0,0-.56-.29c-.39,0-.67.27-1.06.77a12.87,12.87,0,0,1-3.36,3.08A27.07,27.07,0,0,1,148,18.49a1.41,1.41,0,0,0,.39-1.42c-.33-1.07-2-1.54-2.51-1.66l-.56-.13-.19.54,0,0a2.66,2.66,0,0,0-1.74-.58h-.16a5,5,0,0,0-2.3.75,7.55,7.55,0,0,0-.77.53,22.42,22.42,0,0,0-5.47,7.62A34.54,34.54,0,0,1,130.69,29a6,6,0,0,1-3.07,1.84.34.34,0,0,1-.31-.12c-.1-.12-.38-.66,0-2.47v0s0-.06,0-.09a7.49,7.49,0,0,0,1.45-.45c2.76-1.16,5.93-4,6.86-7a2.79,2.79,0,0,0-.18-2.51,2.19,2.19,0,0,0-1.88-.81,5.88,5.88,0,0,0-2.09.45,12.44,12.44,0,0,0-4.34,3,16.4,16.4,0,0,0-2.74,4.06l-.15.33a1.37,1.37,0,0,1-.16-.18,4.38,4.38,0,0,1-.25-2.6,15.45,15.45,0,0,0,5.37-4.89A33.35,33.35,0,0,0,132,13.2c1-1.75,1.13-3.2.53-4.3a3.72,3.72,0,0,0-2.65-1.68,4.19,4.19,0,0,0-3.14-1.29c-5.47,0-13.75,8.46-15.65,13.55a8.62,8.62,0,0,0,0,6.67c1.36,3.21,4.64,5.74,8.06,8.07a3.16,3.16,0,0,1,1.5,1.87,1.83,1.83,0,0,1,0,.66c-.56,2.82-7.27,6-11.66,7a28,28,0,0,1-5.78.7c-2.12,0-3.62-.4-4.11-1.08a1.32,1.32,0,0,1-.08-1.23,4.15,4.15,0,0,1,2.12-2.27c2.06-1.09,5.17-1.38,7.84-1.38a39.8,39.8,0,0,1,7.77.74,2,2,0,0,0,.66.12,1.39,1.39,0,0,0,.3,0,1.64,1.64,0,0,0,1.21-1l.26-.67-.69-.19a35.45,35.45,0,0,0-9.39-1.32c-6.14,0-11.4,1.9-12.8,4.62a5.64,5.64,0,0,0-.42,4.93l0,.11c.75,1.57,2.38,2.71,4.86,3.39a13.37,13.37,0,0,0,3.4.35h0a35.73,35.73,0,0,0,13.33-2.81,19,19,0,0,0,6.91-4.91,5.26,5.26,0,0,0,1.5-4,4.65,4.65,0,0,0-.29-1.11C125,34.8,123,33.19,120.79,31.53ZM140.67,20.1a10.18,10.18,0,0,1,2.56-2.53,2,2,0,0,1,.63-.27,1,1,0,0,1,0,.16.5.5,0,0,1,0,.12,3.1,3.1,0,0,1-2.13,2.62l-.69.17.24.67a2.54,2.54,0,0,0,.31.64,1.57,1.57,0,0,0,.53.51l-.1.27a20.52,20.52,0,0,0-.77,2.33c-1.85,2.48-3,2.67-3.24,2.68a.47.47,0,0,1-.07-.17C137.6,26.22,138.53,22.88,140.67,20.1Zm-7.51-.35.35-.19s0,.09-.07.14a17.59,17.59,0,0,1-4.83,5.48A17.2,17.2,0,0,1,133.16,19.75Zm-14.81-1.89c4.18-4.94,7-7.43,8.68-8.32a2.7,2.7,0,0,1,1.15-.39h.14a.9.9,0,0,1,0,.31c-.33,1.3-3,4.81-4.76,7.21l-.4.54c-1.15,1.53-2.27,2.34-3.25,2.34a1.82,1.82,0,0,1-1.34-.61l-.54-.68Z"/><path class="cls-6" d="M162.89,25.58a12.38,12.38,0,0,0-2.81,2.57,15.83,15.83,0,0,0-3.55,7.32,5.11,5.11,0,0,0,.36,3,3,3,0,0,0,.51.75l.07.07a3.44,3.44,0,0,0,2.23.81,4.57,4.57,0,0,0,1.61-.32c3.56-1.39,6.92-6.77,7.44-7.79a11.46,11.46,0,0,0,1.84-1.32c-.78,2-1.55,4.37-1.37,5.8a3.74,3.74,0,0,0,.39,1.36,1.78,1.78,0,0,0,1.75,1,2.61,2.61,0,0,0,.87-.17,7.26,7.26,0,0,0,3.38-3,3.81,3.81,0,0,0,.32,1,2.27,2.27,0,0,0,1.51,1.2,1.32,1.32,0,0,0,.34,0,1.81,1.81,0,0,0,.55-.09c1.42-.44,3.28-2.52,5.07-5.67l.15-.25a3.3,3.3,0,0,0,.56.07l0,.23a5.41,5.41,0,0,0,.35,3.11,3.2,3.2,0,0,0,1.18,1.32,3.05,3.05,0,0,0,1.7.5,4.76,4.76,0,0,0,1.75-.38c4.15-1.71,9.05-8.63,10.94-11.93a1.28,1.28,0,0,0,.11-.2,3.83,3.83,0,0,0,.69-.09l0,.07-.07.09a14.13,14.13,0,0,0-1.12,1.71,15.07,15.07,0,0,0-1.69,5.25,4.73,4.73,0,0,0,.45,2.11,2.6,2.6,0,0,0,1.76,1.49,3.42,3.42,0,0,0,2-.23,11,11,0,0,0,3.21-2.21l.09-.08a4.83,4.83,0,0,0,4.16,1.79h0a8.86,8.86,0,0,0,3.14-.6,5.84,5.84,0,0,0,3-2.4,9,9,0,0,0,1-2.78,1.06,1.06,0,0,0,0-.19,6,6,0,0,0,1.42-.26,4.41,4.41,0,0,0,.54-.24,2.78,2.78,0,0,0,1.73-2.44,2.48,2.48,0,0,0-.93-2l-.17-.08h-.16c-.5,0-.67.44-.8.77-.27.7-.57,1.34-1.36,1.36h-.18a15.7,15.7,0,0,0-.7-3.31c-.71-2.22-.2-3.24,0-3.43a3.9,3.9,0,0,0,1.66-2.39,1.48,1.48,0,0,0-.49-1.14,1.83,1.83,0,0,0-1.24-.4,3.84,3.84,0,0,0-3.33,2.13,6.58,6.58,0,0,0-.62,2.59c-.88,1.5-2.77,4.19-4.34,6.32a4.27,4.27,0,0,0-3.27,4c-1.47,1.49-2.18,1.61-2.37,1.61a.16.16,0,0,1-.16-.07A2.23,2.23,0,0,1,202,30a22.51,22.51,0,0,1,3.38-6.54,1.65,1.65,0,0,0,.32-1.82,1.67,1.67,0,0,0-1.53-.88,2,2,0,0,0-.86.2,6.39,6.39,0,0,1-1.3.43c.58-.91,1.34-2.39,1.09-3.47a1.53,1.53,0,0,0-.8-1.05,2.38,2.38,0,0,0-3,.82,7.72,7.72,0,0,0-1.79,5.08,2.12,2.12,0,0,0,.3.89.64.64,0,0,0,.08.14l0,.07c-1.13,1.92-3.89,6.34-6.55,8.48-1.73,1.38-2.49,1.53-2.74,1.53s-.17,0-.19-.06-.34-.56.06-2.43c0,0,0-.05,0-.08.34-.1.69-.23,1-.37,3-1.24,6.34-4.11,7.33-7.24a2.68,2.68,0,0,0-.17-2.47,2.19,2.19,0,0,0-1.89-.81c-1.87,0-4.46,1.37-6.43,3.41a18,18,0,0,0-3.72,6h-.07c.28-.58.55-1.17.8-1.77,1.19-2.77,1.47-4.47.88-5.36a1.24,1.24,0,0,0-1.08-.58,1.87,1.87,0,0,0-1.1.39c-.9.67-3.5,4.22-2.7,7.14a3.4,3.4,0,0,0,.27.7,2.14,2.14,0,0,0,.1.22l0,0a12.77,12.77,0,0,1-2.36,3.12h0a7.06,7.06,0,0,1,.31-2.87,28.18,28.18,0,0,1,1.71-5.18l.2-.45a1.71,1.71,0,0,0,0-1.37,2,2,0,0,0-1.34-.95l-.27-.09a2.41,2.41,0,0,0-.78-.19.78.78,0,0,0-.66.33c-.08.09-.24.33-1.63,4.94,0,0-.33,1.05-.7,2.33a18.84,18.84,0,0,1-2.2,3.84,5.29,5.29,0,0,1-.78.84,10.82,10.82,0,0,1,1.13-4.2l.47-1c1.63-3.52,2.16-4.81,1.73-5.49a.83.83,0,0,0-.71-.38h0a2.39,2.39,0,0,1-1.22-.28L174,23.1l-.28.76c0,.07-.07.15-.11.26a40.37,40.37,0,0,1-3.31,4.26,4.36,4.36,0,0,1-.56.47,5.1,5.1,0,0,0,.29-2.13,2.18,2.18,0,0,0-.65-1.36,3.66,3.66,0,0,0-2.65-1A7.31,7.31,0,0,0,162.89,25.58Zm49.62-1.83.07-.11c0,.2.09.41.14.62a10,10,0,0,1,.21,1.29l-1.66,0C211.67,25,212.09,24.38,212.51,23.75Zm-3.23,4.53.18-.23c.87,0,1.87.12,2.94.23l.51,0c0,.09,0,.17,0,.26-.36,2-1.4,3.24-3.11,3.56a4.41,4.41,0,0,1-.86.09,2,2,0,0,1-2-1.11C207.67,30.31,208.46,29.35,209.28,28.28Zm-14.93-5.52a2.23,2.23,0,0,1,.48-.25l-.06.19a13.56,13.56,0,0,1-5.21,5.85A17.78,17.78,0,0,1,194.35,22.76Zm-26.71,3.71s0,.05,0,.15v.2a3.35,3.35,0,0,1-.15.93,1.32,1.32,0,0,0-.34,0,1.64,1.64,0,0,0-1.35.8,2.56,2.56,0,0,0-.23,2.55l.09.17a2.32,2.32,0,0,0,.67.78l-.14.21c-2.61,4.19-5.08,4.59-5.3,4.07-.47-1.11.79-4.36,3-7.13a9.78,9.78,0,0,1,2.58-2.37,2.25,2.25,0,0,1,1-.35C167.6,26.44,167.64,26.46,167.64,26.47Z"/><path class="cls-6" d="M148.4,21.33h0a2.61,2.61,0,0,1,.48.05l.24.06.22.08,0-.21a7.5,7.5,0,0,1,0-1.34,3.7,3.7,0,0,1-.47.65A5.15,5.15,0,0,0,148.4,21.33Z"/><path class="cls-6" d="M166.13,18.15l.75-.43a11.77,11.77,0,0,0-2.41-.64l-.79,1.43c-.17.31-.36.63-.55,1q.3-.09.6-.21A19.09,19.09,0,0,0,166.13,18.15Z"/><path class="cls-6" d="M159.08,25.49a16.43,16.43,0,0,0,1.82-.11,23.61,23.61,0,0,0,6.35-1.8l.15-.06.46-.2c7.91-3.54,10.4-7.89,11.09-11a9.48,9.48,0,0,0-2.24-8.47c-1.78-2-5-3-9.27-3A38.57,38.57,0,0,0,154.91,3.2c-1.59.59-3.25,1.28-4.86,1.94-3.73,1.54-7.58,3.13-9.87,3.14h0a2.21,2.21,0,0,1-1.47-.41L138,7.22l-.39-.34,0,.36,0,1.14a9.74,9.74,0,0,0,.71,3.31,2.52,2.52,0,0,0,2.24,1.7l.34,0a16,16,0,0,0,3.36-1.27c.91-.42,2-.92,3.27-1.53s2.72-1.27,4.19-1.94a74,74,0,0,1,10.39-4V4.7L162,5.82a15.62,15.62,0,0,1-1.31,3.79c-.23.5-1,1.82-1.61,3A11.34,11.34,0,0,0,153.12,16a5.81,5.81,0,0,0-1.66,4.33,4.76,4.76,0,0,0,.44,1.62A5.14,5.14,0,0,0,153,23.43l-.11.2c-5.61,10.16-6.46,12-6.45,13.32a4.25,4.25,0,0,0,.95,2.84A5.21,5.21,0,0,0,150,41.4a8.06,8.06,0,0,0,2,.3,9.68,9.68,0,0,1-1-1.83c-.29-.81-.51-2.6,1.44-6.23,1.21-2.26,2.91-5.06,4.73-8l.15-.25A12,12,0,0,0,159.08,25.49Zm3.42-8.78c.48-.86.88-1.57,1.22-2.21l.13-.24a13,13,0,0,1,4.31,1h0l.5.2L169,15a1.6,1.6,0,0,0,.15-1.38,1.78,1.78,0,0,0-1.4-1,20.19,20.19,0,0,0-2.79-.41c1.31-2.64,1.63-4,1.2-4.88A1.53,1.53,0,0,0,165,6.49c-1.3-.24-1.68-.74-1.73-.83l-.32-1.14,0-.12.56-.13a22,22,0,0,1,4.48-.5c3.29,0,6,1,7.41,2.62A4.27,4.27,0,0,1,176.18,8a3.84,3.84,0,0,1,.1,1.69c-.61,3.72-8,10.13-14.11,11.17a16.94,16.94,0,0,1-2.2.23C161,19.35,161.8,18,162.5,16.71Zm-5.39-.64-2.17,3.85a1.48,1.48,0,0,1-.58-.86,1.75,1.75,0,0,1,.57-1.36,10,10,0,0,1,2.29-1.82Z"/><path class="cls-6" d="M209.92,30.81l-.11.14.18-.14Z"/><path class="cls-6" d="M170.63,25.38l0,.05a.76.76,0,0,1,.08-.11c.28-.39.57-.78.84-1.17-.43.26-.89.51-1.36.75A4.63,4.63,0,0,1,170.63,25.38Z"/><path class="cls-6" d="M175.31,40.58c.85.18,1.71.39,2.59.62,1,.27,2.08.58,3.14.92l1.66.54c5.13,1.68,11.5,3.76,16.6,3.76a11.6,11.6,0,0,0,4.73-.85,6,6,0,0,0,3.2-2.46,3.94,3.94,0,0,0,.48-1,2.27,2.27,0,0,0,0-1.31,2.41,2.41,0,0,1-1.76-1.3,2.3,2.3,0,0,1,.11-2.21,2.18,2.18,0,0,1,.26-.36s.09-.1.17-.17A5.82,5.82,0,0,1,205,36a7.76,7.76,0,0,1-4.66,2,4,4,0,0,1-1-.11A4.7,4.7,0,0,1,195.89,34C193.25,37,190,39.78,187,39.78a4.71,4.71,0,0,1-2.64-.77,5,5,0,0,1-1.78-2c-1.47,1.91-3.26,3.55-5.1,3.55a3.16,3.16,0,0,1-.76-.09,4.09,4.09,0,0,1-1.68-.87,7.66,7.66,0,0,1-.87.73l.73.15Z"/><path class="cls-6" d="M152.07,40a1.78,1.78,0,0,0,.15.66,5.78,5.78,0,0,0,1.39,1.81.08.08,0,0,1,0,0c0,.31-.86,1.42-3.31,1.65h-.07l-.28,0c-2.15,0-5.35-2.05-5.53-6.31a4.16,4.16,0,0,1,.18-1.38,35.85,35.85,0,0,1,2.72-6.11c.26-.51.54-1.05.85-1.63-1.88,2.13-3.6,3.15-5.3,3.15a3.82,3.82,0,0,1-1.93-.52c-1.74,1.64-3.39,2.44-5,2.44a4.52,4.52,0,0,1-2.7-.9l-.19-.15c-1.68,1.72-3.86,3.42-6.2,3.83.09.21.17.41.24.62s.13.46.18.7a5.21,5.21,0,0,1,.09.57,6.2,6.2,0,0,1,0,1.14h.16a2.21,2.21,0,0,1,.37,0c7.27,1.36,14.31,3.4,20.53,5.19,3,.86,5.75,1.66,8.13,2.26l.12,0a4.84,4.84,0,0,1,0-1.07,6,6,0,0,1,.88-2.31c.1-.16.2-.32.31-.47s.31-.39.47-.57A5.28,5.28,0,0,1,156,41.6a1.66,1.66,0,0,1-.27-.26,6.17,6.17,0,0,1-1.33-5.21,10.53,10.53,0,0,1,.36-1.68c0-.12.07-.24.11-.37a17.78,17.78,0,0,1,1.46-3.31c-1,1.7-1.94,3.28-2.68,4.64C151.77,39,152.06,40,152.07,40Z"/><path class="cls-6" d="M210.75,35.83c-2.21.17-3.7,2.51-3.7,2.51a4.49,4.49,0,0,1,1.42-.13,1.26,1.26,0,0,1,1.08.6,3.83,3.83,0,0,1,.27.67,4.31,4.31,0,0,1-.71,3.72,7.76,7.76,0,0,1-4,3.11,13.57,13.57,0,0,1-5.5,1c-5.38,0-11.92-2.14-17.17-3.85l-1.66-.55a44.36,44.36,0,0,0-12.94-2.36c-4.23,0-7,1.09-8.36,3.24a3.22,3.22,0,0,0-.36,3.36l0,0c.66,1.18,2.31,1.93,4.31,1.91a7.34,7.34,0,0,0,2.36-.42,9.56,9.56,0,0,0,2.2-1s-2.31-.35-2.14-1.49a.44.44,0,0,1,.18-.3,2.85,2.85,0,0,1,1.69-.41c1,0,1.86.34,2,.77a1.56,1.56,0,0,1,.1.37,1.29,1.29,0,0,1-.23.87c-.32.48-1.43,1.58-4.95,1.68h-.53c-.69,0-1.45,0-2.24-.12-.37,0-.78-.08-1.2-.15a119.87,119.87,0,0,1-12.47-3.19c-6.17-1.78-13.18-3.8-20.36-5.15l-.29-.05-.23.19s-.68.59-.88.75l-.91.8,1.17.29h0c.76.19,15.7,3.93,28.29,7.66a34.41,34.41,0,0,0,9.68,1.58,16.14,16.14,0,0,0,5.62-.88c2.42-.91,3.67-2.39,3.8-3.8a3.27,3.27,0,0,0-1.55-3,4.1,4.1,0,0,0-.41-.26c2.26.15,6.29.92,13.35,3.39A43.48,43.48,0,0,0,199.86,50h0a21.23,21.23,0,0,0,7.76-1.32,12.2,12.2,0,0,0,5-3.46c2.06-2.48,2.72-5.19,1.75-7.25A3.66,3.66,0,0,0,210.75,35.83Z"/><path class="cls-6" d="M157,29.74c.35-.54.72-1.06,1.11-1.55h-.16Z"/><path class="cls-6" d="M145.87,14.49l.39.1c1.2.34,2.92,1.12,3.43,2.82a3.29,3.29,0,0,1,.09.43c0,.12,0,.23,0,.35,0,0,0-.07,0-.11a8.73,8.73,0,0,1,1.6-2.51,12.81,12.81,0,0,1,6.08-3.69c.44-.81,1-1.81,1.16-2.18s.23-.51.33-.75.22-.55.31-.79c-3.74,1.35-8,3.36-11.4,5l-2.83,1.32A2.46,2.46,0,0,1,145.87,14.49Z"/><path class="cls-6" d="M163.42,33.47c.12-.14.23-.3.35-.47l0-.07Z"/><path class="cls-6" d="M120.55,27.51a2.53,2.53,0,0,1-.19-.48,6.81,6.81,0,0,1-.26-1.65,7.82,7.82,0,0,1-3.09-1.6,4.38,4.38,0,0,0-.13,3,2.7,2.7,0,0,0,.71,1c1,.88,2.06,1.73,3.15,2.55l.09.07a11.41,11.41,0,0,1,.35-2A5.61,5.61,0,0,1,120.55,27.51Z"/><path class="cls-6" d="M167.3,39.67h.43a5.85,5.85,0,0,1-.6-1.84l-.48.58c-.44.49-.87.94-1.29,1.36.26,0,.52-.05.79-.06S166.9,39.67,167.3,39.67Z"/><path class="cls-8" d="M210.75,35.83c-2.21.17-3.7,2.51-3.7,2.51a4.49,4.49,0,0,1,1.42-.13,1.26,1.26,0,0,1,1.08.6,3.83,3.83,0,0,1,.27.67,4.31,4.31,0,0,1-.71,3.72,7.76,7.76,0,0,1-4,3.11,13.57,13.57,0,0,1-5.5,1c-5.38,0-11.92-2.14-17.17-3.85l-1.66-.55a44.36,44.36,0,0,0-12.94-2.36c-4.23,0-7,1.09-8.36,3.24a3.22,3.22,0,0,0-.36,3.36l0,0c.66,1.18,2.31,1.93,4.31,1.91a7.34,7.34,0,0,0,2.36-.42,9.56,9.56,0,0,0,2.2-1s-2.31-.35-2.14-1.49a.44.44,0,0,1,.18-.3,2.85,2.85,0,0,1,1.69-.41c1,0,1.86.34,2,.77a1.56,1.56,0,0,1,.1.37,1.29,1.29,0,0,1-.23.87c-.32.48-1.43,1.58-4.95,1.68h-.53c-.69,0-1.45,0-2.24-.12-.37,0-.78-.08-1.2-.15a119.87,119.87,0,0,1-12.47-3.19c-6.17-1.78-13.18-3.8-20.36-5.15l-.29-.05-.23.19s-.68.59-.88.75l-.91.8,1.17.29h0c.76.19,15.7,3.93,28.29,7.66a34.41,34.41,0,0,0,9.68,1.58,16.14,16.14,0,0,0,5.62-.88c2.42-.91,3.67-2.39,3.8-3.8a3.27,3.27,0,0,0-1.55-3,4.1,4.1,0,0,0-.41-.26c2.26.15,6.29.92,13.35,3.39A43.48,43.48,0,0,0,199.86,50h0a21.23,21.23,0,0,0,7.76-1.32,12.2,12.2,0,0,0,5-3.46c2.06-2.48,2.72-5.19,1.75-7.25A3.66,3.66,0,0,0,210.75,35.83Zm1.45,8.68c-3.84,4.6-12.89,6.56-26.33,1.84-14.19-5-16.37-3.13-16.37-3.13,8.71,1.65,3.6,11.33-14.15,6.06C142.33,45.42,127,41.6,127,41.6l.87-.75c13.93,2.62,27.57,7.88,34.08,8.5,7.32.7,9.26-1.9,8.49-3.68-.6-1.41-4.18-1.62-5-.13s1,2.07,1,2.07c-3.28,1.48-8.63.08-6.26-3.77,2.68-4.36,12.33-3.27,20.57-.61,7.7,2.49,18.15,6.29,24.77,3.37a8.39,8.39,0,0,0,4.23-3.34,4.79,4.79,0,0,0,.48-5,1.79,1.79,0,0,0-1.57-.85,4.11,4.11,0,0,1,2.29-1.2C213.8,35.83,216,39.89,212.2,44.51Z"/><path class="cls-3" d="M210.87,36.17a4.11,4.11,0,0,0-2.29,1.2,1.79,1.79,0,0,1,1.57.85,4.79,4.79,0,0,1-.48,5,8.39,8.39,0,0,1-4.23,3.34c-6.62,2.92-17.07-.88-24.77-3.37-8.24-2.66-17.89-3.75-20.57.61-2.37,3.85,3,5.25,6.26,3.77,0,0-1.81-.58-1-2.07s4.44-1.28,5,.13c.77,1.78-1.17,4.38-8.49,3.68-6.51-.62-20.15-5.88-34.08-8.5l-.87.75s15.33,3.82,28.35,7.68c17.75,5.27,22.86-4.41,14.15-6.06,0,0,2.18-1.84,16.37,3.13,13.44,4.72,22.49,2.76,26.33-1.84S213.8,35.83,210.87,36.17Z"/><path class="cls-9" d="M119.85,19.67c1,0,2.11-.8,3.25-2.33l.41-.54c1.8-2.4,4.43-5.91,4.75-7.21a.58.58,0,0,0,0-.31h-.14a2.79,2.79,0,0,0-1.15.39c-1.63.89-4.49,3.38-8.67,8.32l-.35.42.53.68A1.86,1.86,0,0,0,119.85,19.67Z"/><path class="cls-10" d="M133.42,19.81l.06-.14a3.07,3.07,0,0,0-.34.19,17.2,17.2,0,0,0-4.56,5.43A17.88,17.88,0,0,0,133.42,19.81Z"/><path class="cls-11" d="M138,27.58c.26,0,1.39-.2,3.24-2.68a22.72,22.72,0,0,1,.77-2.33l.11-.27a1.51,1.51,0,0,1-.54-.51,2.94,2.94,0,0,1-.31-.64l-.23-.67.68-.17a3.1,3.1,0,0,0,2.14-2.62s0-.08,0-.12a1,1,0,0,0,0-.16,2,2,0,0,0-.63.27,10.35,10.35,0,0,0-2.56,2.53c-2.14,2.78-3.06,6.12-2.76,7.2A.47.47,0,0,0,138,27.58Z"/><path class="cls-12" d="M168.63,15.55l-.49-.2h0a13,13,0,0,0-4.31-1l-.13.24c-.34.64-.74,1.35-1.21,2.21-.71,1.25-1.52,2.64-2.53,4.34a16.8,16.8,0,0,0,2.19-.23c6.11-1.05,13.51-7.45,14.11-11.17a3.84,3.84,0,0,0-.1-1.69,3.93,3.93,0,0,0-.86-1.57c-1.41-1.66-4.11-2.62-7.41-2.62a21.85,21.85,0,0,0-4.47.5l-.57.12,0,.13.31,1.14c.06.09.43.59,1.73.83a1.56,1.56,0,0,1,1.17.83c.43.89.1,2.25-1.2,4.89a20.29,20.29,0,0,1,2.78.4,1.83,1.83,0,0,1,1.41,1,1.55,1.55,0,0,1-.16,1.37Zm-2.52,2.71a18.58,18.58,0,0,1-2.41,1.11c-.2.08-.39.15-.59.21l.55-1,.79-1.43a11.68,11.68,0,0,1,2.4.64C166.61,18,166.36,18.12,166.11,18.26Zm1.52-9.81a3.48,3.48,0,0,0-.3-.93l-.12-.25a3.21,3.21,0,0,0-.5-.65c3.15-.15,5.77.62,6.92,2a2,2,0,0,1,.51,1.69A2.8,2.8,0,0,1,174,11,13,13,0,0,1,170.67,15a.46.46,0,0,1-.07.07,4.28,4.28,0,0,0,0-.49,2.71,2.71,0,0,0-.18-.66,3.51,3.51,0,0,0-2.67-2.12l-.23-.05-.32-.06A6.35,6.35,0,0,0,167.63,8.45Z"/><path class="cls-13" d="M154.9,17.81a1.75,1.75,0,0,0-.57,1.36,1.53,1.53,0,0,0,.59.86c.75-1.35,1.49-2.65,2.16-3.85l.11-.19A10.2,10.2,0,0,0,154.9,17.81Z"/><path class="cls-14" d="M221.77,25.72A4.15,4.15,0,0,0,220,22.94a2.44,2.44,0,0,0-1.18-.3,2.4,2.4,0,0,0-1.27.35l-.07-.25-.05-.14a3.86,3.86,0,0,1-.22-1.5,5,5,0,0,0,2-3.54,3.6,3.6,0,0,0,0-.66A3.28,3.28,0,0,0,218.14,15a3.48,3.48,0,0,0-2.41-.87,5.6,5.6,0,0,0-4.92,3.15,8,8,0,0,0-.51,1.37,8.27,8.27,0,0,0-.26,1.45l-.14.21c-.63,1-1.55,2.35-2.48,3.66l-.39.54a3.53,3.53,0,0,0,.2-1.84,3.43,3.43,0,0,0-.27-.86A3.33,3.33,0,0,0,204.73,20l-.19-.05a4.17,4.17,0,0,0,0-1.32c0-.05,0-.09,0-.14a3.38,3.38,0,0,0-1.74-2.3,3.73,3.73,0,0,0-1.78-.45,4.42,4.42,0,0,0-3.38,1.74,9.27,9.27,0,0,0-1.44,2.39,4.37,4.37,0,0,0-1.73-.33c-2.12,0-4.78,1.26-7,3.27l-.06-.1a3,3,0,0,0-2.59-1.43,3.6,3.6,0,0,0-2.14.74,6.09,6.09,0,0,0-.84.81,4.59,4.59,0,0,0-1.44-.69l-.17-.06a4,4,0,0,0-1.36-.29,2.56,2.56,0,0,0-2.09,1.06,2.1,2.1,0,0,0-.22.36A2.45,2.45,0,0,0,175.4,23h0a.57.57,0,0,1-.22,0,2.92,2.92,0,0,0-.32-.21,2.06,2.06,0,0,0-.63-.22c4-3.06,5.57-6.31,6.11-8.82a11.36,11.36,0,0,0-2.68-10C175.47,1.22,171.92,0,167.06,0a40.29,40.29,0,0,0-13.13,2.45c-1.62.6-3.3,1.29-4.92,2-3.41,1.41-7.27,3-9.21,3a1.81,1.81,0,0,1-.4,0,2.39,2.39,0,0,0-2.56-.29,2.5,2.5,0,0,0-1.31,1.75,2.88,2.88,0,0,0-.06.59c.1,2.64,1.05,5.67,3.34,6.54l-.18.13-.37.31a16.24,16.24,0,0,0-1.68,1.72l0,0a3.94,3.94,0,0,0-3.32-1.58h-.35l-.53.05c.4-.65.69-1.17.86-1.48a7.19,7.19,0,0,0,1-4.71A5,5,0,0,0,133.77,9a5.22,5.22,0,0,0-3.39-2.53,6,6,0,0,0-4-1.44c-6.41,0-15.19,9-17.31,14.73-.12.35-.23.68-.33,1-2.06,7.14,3.06,11.72,8.37,15.43l-1.44-.31a36.57,36.57,0,0,0-6.92-.69c-7,0-12.62,2.2-14.36,5.6a9.74,9.74,0,0,0-.72,1.81,7,7,0,0,0,.21,4.68c.94,2.19,3,3.73,6.11,4.59a15.13,15.13,0,0,0,3.86.4c5.13,0,15-1.59,20.73-7.42a2.46,2.46,0,0,1-.48-1,1.41,1.41,0,0,1,.06-.84c0,.09,0,.18,0,.28A2.37,2.37,0,0,0,126,45.09c.15,0,15.43,3.86,28.24,7.66a36.35,36.35,0,0,0,10.22,1.66c7.31,0,10.89-3.13,11.2-6.23a3.93,3.93,0,0,0,0-1.08,81,81,0,0,1,9,2.68,45.35,45.35,0,0,0,14.86,2.86h0c6.23,0,11.27-1.93,14.19-5.44a9.67,9.67,0,0,0,2.55-6.94,6.23,6.23,0,0,0-.61-2.19,5.69,5.69,0,0,0-1.15-1.57,6.26,6.26,0,0,0-.49-.41,7.2,7.2,0,0,0,2.88-2.7,11.12,11.12,0,0,0,1-2.27,5.33,5.33,0,0,0,1.34-.51,4.59,4.59,0,0,0,2.69-4.08A4.45,4.45,0,0,0,221.77,25.72Zm-51.05-.29a.76.76,0,0,1-.08.11l0-.05a3.64,3.64,0,0,0-.4-.48c.48-.24.93-.49,1.36-.75Q171.15,24.85,170.72,25.43Zm-15.87,8.76c0,.13-.08.25-.11.37a11.75,11.75,0,0,0-.36,1.68,6.21,6.21,0,0,0,1.33,5.21,3.25,3.25,0,0,0,.27.26,5.31,5.31,0,0,0,2.39,1.12,5.08,5.08,0,0,0-.47.57c-.11.15-.22.31-.31.46a6.15,6.15,0,0,0-.88,2.31,4.41,4.41,0,0,0,0,1.08l-.12,0c-2.38-.59-5.14-1.39-8.12-2.25-6.22-1.79-13.27-3.83-20.54-5.19a1.47,1.47,0,0,0-.36,0h-.17a6.2,6.2,0,0,0,0-1.14,5.21,5.21,0,0,0-.09-.57c0-.24-.11-.47-.18-.7s-.15-.41-.24-.62c2.34-.42,4.52-2.11,6.2-3.83l.2.15a4.47,4.47,0,0,0,2.69.9c1.6,0,3.25-.8,5-2.44a3.78,3.78,0,0,0,1.92.52c1.7,0,3.42-1,5.3-3.15-.31.58-.59,1.12-.85,1.63a36.73,36.73,0,0,0-2.72,6.11,4.16,4.16,0,0,0-.18,1.38c.18,4.26,3.38,6.26,5.54,6.31l.28,0h.06c2.45-.23,3.35-1.34,3.32-1.65,0,0,0,0,0,0a6,6,0,0,1-1.39-1.81,2.3,2.3,0,0,1-.15-.66s-.3-1.07,1.6-4.61c.73-1.37,1.65-2.94,2.68-4.64A17.2,17.2,0,0,0,154.85,34.19Zm21.79,6.4a3.22,3.22,0,0,0,.76.09c1.84,0,3.64-1.64,5.1-3.55a5.16,5.16,0,0,0,1.78,2,4.85,4.85,0,0,0,2.65.77c3.06,0,6.3-2.76,8.94-5.81A4.69,4.69,0,0,0,199.32,38a4,4,0,0,0,1,.11,7.73,7.73,0,0,0,4.66-2,6.14,6.14,0,0,0,1.54.76l-.16.17a1.88,1.88,0,0,0-.27.36,2.33,2.33,0,0,0-.33,1A2.31,2.31,0,0,0,206,39.6a2.41,2.41,0,0,0,1.76,1.3,2.34,2.34,0,0,1,0,1.31,3.7,3.7,0,0,1-.49,1A6.06,6.06,0,0,1,204,45.68a11.65,11.65,0,0,1-4.74.85c-5.09,0-11.47-2.08-16.59-3.76L181,42.23c-1-.34-2.1-.65-3.14-.92-.87-.23-1.74-.44-2.59-.62l-.46-.09-.73-.15a7.66,7.66,0,0,0,.87-.73A4.15,4.15,0,0,0,176.64,40.59Zm-9.37-.81c-.39,0-.78,0-1.15,0s-.53,0-.79.06c.43-.42.86-.87,1.29-1.36.17-.19.33-.38.49-.58a5.46,5.46,0,0,0,.6,1.84h-.44ZM149.11,21.55l-.24-.06a2.61,2.61,0,0,0-.48,0h0a5.26,5.26,0,0,1,.48-.71,3.76,3.76,0,0,0,.48-.65,6,6,0,0,0,0,1.34,1.49,1.49,0,0,0,0,.21ZM159,9.06c-.1.24-.2.49-.33.75S158,11.18,157.51,12a12.77,12.77,0,0,0-6.07,3.69,8.77,8.77,0,0,0-1.61,2.51.49.49,0,0,1,0,.11,2,2,0,0,0,0-.35,3.34,3.34,0,0,0-.1-.43,4.66,4.66,0,0,0-3.43-2.82l-.39-.1a2.17,2.17,0,0,0-.76,0c.82-.37,1.75-.81,2.84-1.32,3.38-1.6,7.66-3.61,11.39-5C159.23,8.51,159.12,8.78,159,9.06Zm-.95,19.24a17.38,17.38,0,0,0-1.11,1.55l.94-1.56ZM137.61,8.49l0-1.14V7l.39.35.73.65a2.23,2.23,0,0,0,1.47.4h0c2.29,0,6.15-1.59,9.88-3.13,1.6-.67,3.27-1.35,4.85-1.94A38.58,38.58,0,0,1,167.42,1c4.28,0,7.49,1.05,9.27,3a9.48,9.48,0,0,1,2.23,8.47c-.68,3.06-3.17,7.41-11.09,11l-.45.2-.15.06a23.36,23.36,0,0,1-6.36,1.79,14.26,14.26,0,0,1-1.82.12,12,12,0,0,1-1.73-.12l-.15.25c-1.81,3-3.51,5.76-4.73,8-1.94,3.63-1.72,5.42-1.43,6.23a9.86,9.86,0,0,0,1,1.83,8.11,8.11,0,0,1-2-.3,5.21,5.21,0,0,1-2.65-1.61,4.35,4.35,0,0,1-.95-2.84c0-1.28.84-3.16,6.45-13.32l.11-.2A5.32,5.32,0,0,1,151.87,22a4.53,4.53,0,0,1-.43-1.62,5.84,5.84,0,0,1,1.65-4.33A11.38,11.38,0,0,1,159,12.71c.66-1.17,1.39-2.49,1.61-3A15.06,15.06,0,0,0,162,5.93l.15-1.12,0-.12a74.13,74.13,0,0,0-10.39,4l-4.19,1.95c-1.28.61-2.36,1.11-3.27,1.53a16.61,16.61,0,0,1-3.37,1.27,2,2,0,0,1-.34,0,2.49,2.49,0,0,1-2.23-1.7A9.58,9.58,0,0,1,137.61,8.49ZM117.55,46.81a35.81,35.81,0,0,1-13.34,2.81h0a13.28,13.28,0,0,1-3.39-.35c-2.49-.68-4.12-1.82-4.87-3.39a.37.37,0,0,0,0-.11,5.65,5.65,0,0,1,.43-4.93c1.39-2.72,6.65-4.62,12.79-4.62a35.52,35.52,0,0,1,9.4,1.32l.69.19-.26.67a1.66,1.66,0,0,1-1.22,1,1.36,1.36,0,0,1-.29,0,2.06,2.06,0,0,1-.67-.12,38.75,38.75,0,0,0-7.77-.74c-2.67,0-5.77.29-7.84,1.38a4.13,4.13,0,0,0-2.11,2.27,1.29,1.29,0,0,0,.07,1.23c.49.68,2,1.08,4.12,1.07a28,28,0,0,0,5.78-.69c4.38-1,11.1-4.14,11.65-7a1.83,1.83,0,0,0,0-.66,3.12,3.12,0,0,0-1.5-1.87c-3.41-2.33-6.69-4.86-8.06-8.07a8.67,8.67,0,0,1,0-6.67C113,14.5,121.28,6,126.75,6a4.21,4.21,0,0,1,3.15,1.29A3.69,3.69,0,0,1,132.54,9c.6,1.1.43,2.55-.52,4.3a34.42,34.42,0,0,1-2.79,4.36,15.57,15.57,0,0,1-5.38,4.89,4.46,4.46,0,0,0,.25,2.6l.16.18c0-.11.1-.22.16-.33A16.38,16.38,0,0,1,127.15,21a12.53,12.53,0,0,1,4.34-3,5.93,5.93,0,0,1,2.1-.45,2.17,2.17,0,0,1,1.87.81,2.73,2.73,0,0,1,.18,2.51c-.92,3-4.1,5.85-6.86,7a7.62,7.62,0,0,1-1.44.45l0,.09v0c-.41,1.81-.12,2.35,0,2.47s.09.12.31.12a6,6,0,0,0,3.06-1.84,34.68,34.68,0,0,0,3.94-4.83,22.28,22.28,0,0,1,5.47-7.62,7.43,7.43,0,0,1,.76-.53,5,5,0,0,1,2.31-.75h.15A2.64,2.64,0,0,1,145,16l0-.05.19-.54.57.13c.5.12,2.17.59,2.51,1.66a1.4,1.4,0,0,1-.4,1.41,27.53,27.53,0,0,0-3.59,7.67,13,13,0,0,0,3.37-3.08c.38-.5.66-.77,1.05-.77a.69.69,0,0,1,.57.29c.13.17.24.47,0,1.16l0,.09-.05.07c-1.92,2.87-3.64,4.57-5.11,5.09a2.86,2.86,0,0,1-.93.17,2.14,2.14,0,0,1-1.93-1.22l0,0A10.25,10.25,0,0,1,137.55,31a3.59,3.59,0,0,1-1.25.24,2.74,2.74,0,0,1-1.66-.55,2.41,2.41,0,0,1-.69-.8,3.14,3.14,0,0,1-.29-.85A15.41,15.41,0,0,1,128,33.69a5.22,5.22,0,0,1-1.89.4,3.7,3.7,0,0,1-1.33-.25l-.16-.06a2.66,2.66,0,0,1-1.3-1.24s0,0,0,0c-.58-1.17-.54-2.92.13-5.06a2.58,2.58,0,0,1,.08-.26,5,5,0,0,1-1-1.08l-.13-.22,0-.06,0-.06,0-.1a4.57,4.57,0,0,1-.18-2.48l.06-.19L122,23a3.24,3.24,0,0,1-.89-.12l-.24-.07a4.83,4.83,0,0,1-3.15-2.25,2.58,2.58,0,0,1-.32-1.1v-.24c-2.08,3-3.25,6.78-.62,9.2,1.07,1,2.29,1.9,3.47,2.79l.55.42c2.18,1.66,4.17,3.27,4.91,5.16a4.24,4.24,0,0,1,.28,1.1,5.22,5.22,0,0,1-1.49,4A19.13,19.13,0,0,1,117.55,46.81ZM111.19,42a21.16,21.16,0,0,1-2.9.86,26.59,26.59,0,0,1-5.41.66,10.44,10.44,0,0,1-1.69-.12,4.69,4.69,0,0,1-.62-.13c.75-1,3.18-2,8.08-2a39.71,39.71,0,0,1,4,.2C112.15,41.68,111.67,41.86,111.19,42Zm6.37-14.11a2.78,2.78,0,0,1-.71-1,4.38,4.38,0,0,1,.14-3,7.84,7.84,0,0,0,3.08,1.6,7.34,7.34,0,0,0,.26,1.65,2.53,2.53,0,0,0,.19.48,5.61,5.61,0,0,0,.63.95,13.84,13.84,0,0,0-.35,2l-.09-.06C119.63,29.65,118.52,28.8,117.56,27.92Zm96.81,10.14c1,2.06.31,4.77-1.76,7.25a12.2,12.2,0,0,1-5,3.46,21.23,21.23,0,0,1-7.76,1.32h0a43.48,43.48,0,0,1-14.24-2.75c-7.06-2.47-11.09-3.24-13.34-3.4l.4.27a3.26,3.26,0,0,1,1.55,3c-.13,1.42-1.37,2.9-3.79,3.81a16.19,16.19,0,0,1-5.62.88,34.47,34.47,0,0,1-9.69-1.58c-12.58-3.73-27.52-7.47-28.29-7.66h0l-1.18-.29.92-.8.87-.75.23-.19.3.05C135.1,42,142.1,44,148.28,45.78A119.79,119.79,0,0,0,160.74,49c.43.06.83.12,1.21.15a22.34,22.34,0,0,0,2.24.12h.53c3.52-.1,4.63-1.2,4.94-1.68a1.25,1.25,0,0,0,.23-.88,1.19,1.19,0,0,0-.09-.36c-.19-.43-1.09-.77-2-.77a2.87,2.87,0,0,0-1.7.4.52.52,0,0,0-.18.31c-.17,1.14,2.14,1.49,2.14,1.49a9.56,9.56,0,0,1-2.2,1,7.56,7.56,0,0,1-2.36.42c-2,0-3.65-.73-4.31-1.91l0,0a3.22,3.22,0,0,1,.37-3.36c1.32-2.15,4.13-3.24,8.35-3.24A44.3,44.3,0,0,1,180.79,43l1.67.54c5.25,1.72,11.78,3.86,17.17,3.86a13.56,13.56,0,0,0,5.49-1,7.71,7.71,0,0,0,4-3.11,4.32,4.32,0,0,0,.72-3.72,4.83,4.83,0,0,0-.27-.67,1.28,1.28,0,0,0-1.09-.6,4.4,4.4,0,0,0-1.41.13s1.49-2.34,3.7-2.51A3.66,3.66,0,0,1,214.37,38.06Zm4.32-10a3.37,3.37,0,0,1-.54.24,6,6,0,0,1-1.41.26,1.62,1.62,0,0,0,0,.19,9,9,0,0,1-1,2.78,5.77,5.77,0,0,1-3,2.4,8.86,8.86,0,0,1-3.14.6h0a4.87,4.87,0,0,1-4.16-1.79.6.6,0,0,0-.08.08,11,11,0,0,1-3.22,2.21,3.41,3.41,0,0,1-2,.23,2.64,2.64,0,0,1-1.76-1.49,4.87,4.87,0,0,1-.45-2.11,15.28,15.28,0,0,1,1.69-5.25,17,17,0,0,1,1.12-1.71l.07-.09.05-.07a5.43,5.43,0,0,1-.69.09l-.12.2c-1.89,3.3-6.79,10.22-10.94,11.92a4.54,4.54,0,0,1-1.74.39,3.08,3.08,0,0,1-1.71-.5,3.25,3.25,0,0,1-1.17-1.32,5.41,5.41,0,0,1-.36-3.11l0-.23a3.43,3.43,0,0,1-.56-.07l-.14.25c-1.8,3.15-3.66,5.22-5.08,5.67a1.79,1.79,0,0,1-.54.09,1.34,1.34,0,0,1-.35,0,2.28,2.28,0,0,1-1.5-1.2,3.8,3.8,0,0,1-.33-1,7.26,7.26,0,0,1-3.37,3,2.7,2.7,0,0,1-.88.17,1.78,1.78,0,0,1-1.75-1,4,4,0,0,1-.39-1.36c-.18-1.43.6-3.83,1.37-5.8a11.46,11.46,0,0,1-1.84,1.32c-.52,1-3.87,6.4-7.44,7.79a4.56,4.56,0,0,1-1.6.32,3.47,3.47,0,0,1-2.24-.81l-.07-.07a3.3,3.3,0,0,1-.51-.75,5.19,5.19,0,0,1-.36-3,15.93,15.93,0,0,1,3.55-7.32,12.18,12.18,0,0,1,2.82-2.57,7.27,7.27,0,0,1,3.78-1.18,3.68,3.68,0,0,1,2.66,1,2.29,2.29,0,0,1,.65,1.35,5.14,5.14,0,0,1-.29,2.14,4.33,4.33,0,0,0,.55-.47,40.37,40.37,0,0,0,3.31-4.26l.11-.26.28-.76.68.45a2.39,2.39,0,0,0,1.22.28h0a.8.8,0,0,1,.71.38c.44.68-.1,2-1.73,5.49-.16.34-.31.68-.47,1a11,11,0,0,0-1.13,4.2,4.85,4.85,0,0,0,.78-.84,19.31,19.31,0,0,0,2.21-3.84c.36-1.28.69-2.32.69-2.33,1.39-4.61,1.56-4.85,1.63-4.94a.78.78,0,0,1,.67-.33,2.54,2.54,0,0,1,.78.19l.26.09a2,2,0,0,1,1.35.95,1.7,1.7,0,0,1,0,1.37l-.19.45A27.18,27.18,0,0,0,179.66,31a7.28,7.28,0,0,0-.31,2.87h0a12.77,12.77,0,0,0,2.36-3.12l0,0c0-.07-.07-.15-.11-.22a2.9,2.9,0,0,1-.26-.7c-.8-2.92,1.8-6.47,2.7-7.14a1.84,1.84,0,0,1,1.09-.39,1.26,1.26,0,0,1,1.09.58c.58.89.3,2.59-.88,5.36q-.39.9-.81,1.77h.08a17.69,17.69,0,0,1,3.72-6c2-2,4.55-3.41,6.43-3.41a2.18,2.18,0,0,1,1.88.81,2.68,2.68,0,0,1,.17,2.47c-1,3.13-4.31,6-7.33,7.24-.35.14-.7.27-1,.37,0,0,0,.05,0,.08-.4,1.87-.12,2.35-.05,2.43s.05.06.18.06,1-.15,2.74-1.53c2.66-2.14,5.43-6.56,6.56-8.48l0-.07-.09-.14a2.27,2.27,0,0,1-.3-.9,7.77,7.77,0,0,1,1.8-5.07,2.37,2.37,0,0,1,3-.82,1.55,1.55,0,0,1,.81,1c.24,1.08-.52,2.56-1.09,3.47a6.39,6.39,0,0,0,1.3-.43,1.93,1.93,0,0,1,.85-.2,1.58,1.58,0,0,1,1.22,2.7A22.13,22.13,0,0,0,202,30.07a2.13,2.13,0,0,0,0,1.62s.05.07.16.07.9-.12,2.37-1.61a4.25,4.25,0,0,1,3.27-4c1.56-2.13,3.46-4.82,4.33-6.32a6.58,6.58,0,0,1,.63-2.59,3.83,3.83,0,0,1,3.33-2.13,1.8,1.8,0,0,1,1.23.4,1.41,1.41,0,0,1,.49,1.14A3.88,3.88,0,0,1,216.16,19c-.24.19-.74,1.21,0,3.43a16.35,16.35,0,0,1,.7,3.31H217c.78,0,1.09-.66,1.36-1.36.12-.33.29-.77.79-.77h.17l.16.08a2.51,2.51,0,0,1,.94,2A2.79,2.79,0,0,1,218.69,28.1Z"/><path class="cls-15" d="M212.56,23.75l-.08.11c-.42.63-.83,1.24-1.24,1.82l1.67,0a11.63,11.63,0,0,0-.22-1.29C212.64,24.16,212.6,24,212.56,23.75Z"/><path class="cls-16" d="M194.74,22.81a.82.82,0,0,0,.06-.19,2,2,0,0,0-.47.25,17.73,17.73,0,0,0-4.8,5.78A13.43,13.43,0,0,0,194.74,22.81Z"/><path class="cls-17" d="M209.43,28.16l-.18.23c-.82,1.07-1.61,2-2.36,2.85a2,2,0,0,0,2,1.11,4.58,4.58,0,0,0,.86-.09c1.71-.32,2.75-1.52,3.1-3.56,0-.09,0-.17,0-.26l-.52-.05C211.31,28.28,210.3,28.17,209.43,28.16Z"/><path class="cls-18" d="M167.48,26.55a2.29,2.29,0,0,0-1,.35,9.77,9.77,0,0,0-2.57,2.37c-2.23,2.76-3.48,6-3,7.13.22.52,2.69.12,5.31-4.07l.13-.21a2.54,2.54,0,0,1-.67-.78l-.09-.17a2.57,2.57,0,0,1,.24-2.55,1.63,1.63,0,0,1,1.35-.8,1.24,1.24,0,0,1,.33,0,3.35,3.35,0,0,0,.15-.93,1.27,1.27,0,0,0,0-.2c0-.1,0-.15,0-.15A.22.22,0,0,0,167.48,26.55Zm-4.08,7c.09-.17.2-.36.31-.54a.25.25,0,0,0,0,.07Z"/></g></g></svg>